<?xml version="1.0" encoding="UTF-8" standalone="no"?>
<svg
   version="1.0"
   id="Ebene_1"
   width="740"
   height="239.9541"
   viewBox="0 0 740 239.9541"
   overflow="visible"
   enable-background="new 0 0 740 239.9541"
   xml:space="preserve"
   sodipodi:docname="addon.svg"
   inkscape:export-filename="addon.svg"
   inkscape:export-xdpi="64.864868"
   inkscape:export-ydpi="64.864868"
   xmlns:inkscape="http://www.inkscape.org/namespaces/inkscape"
   xmlns:sodipodi="http://sodipodi.sourceforge.net/DTD/sodipodi-0.dtd"
   xmlns="http://www.w3.org/2000/svg"
   xmlns:svg="http://www.w3.org/2000/svg"><defs
   id="defs69" /><sodipodi:namedview
   id="namedview69"
   pagecolor="#ffffff"
   bordercolor="#000000"
   borderopacity="0.25"
   inkscape:showpageshadow="2"
   inkscape:pageopacity="0.0"
   inkscape:pagecheckerboard="0"
   inkscape:deskcolor="#d1d1d1" />&#10;<polyline
   fill="#003399"
   points="189.5088,0.0005 189.5088,20.0005 12.5088,20.0005 12.5088,0.0005 "
   id="polyline1" />&#10;<path
   fill="#003399"
   d="m 12.127,0.0073 c 5.519,-0.2109 10.1641,4.0923 10.375,9.6123"
   id="path1" />&#10;<path
   fill="#003399"
   d="m 22.502,9.6196 c 0.2109,5.5181 -4.0933,10.1641 -9.6113,10.374 C 7.3707,20.2045 2.7266,15.9003 2.5157,10.3832 2.3048,4.8622 6.608,0.2182 12.127,0.0072"
   id="path2" />&#10;<path
   fill="#0099cc"
   d="m 22.5088,34.0005 c 0,5.521 -4.478,10 -10,10 -5.5229,0 -10,-4.478 -10,-10 0,-5.5229 4.4771,-10 10,-10 5.522,0 10,4.477 10,10"
   id="path3" />&#10;<rect
   x="32.008801"
   y="24.0005"
   fill="#0099cc"
   width="93"
   height="20"
   id="rect3" />&#10;<path
   fill="#0099cc"
   d="m 43.5088,34.0005 c 0,5.522 -4.478,10 -10,10 -5.522,0 -10,-4.478 -10,-10 0,-5.522 4.478,-10 10,-10 5.522,0 10,4.478 10,10"
   id="path4" />&#10;<path
   fill="#003399"
   d="m 189.5088,5e-4 c 5.5215,0 10,4.4771 10,10.001"
   id="path5" />&#10;<path
   fill="#003399"
   d="m 199.5088,10.0015 c 0,5.521 -4.4785,9.999 -10,9.999 -5.5234,0 -10,-4.479 -10,-9.999 0,-5.5239 4.4766,-10.001 10,-10.001"
   id="path6" />&#10;<path
   fill="#0099cc"
   d="m 178.5088,34.0005 c 0,5.521 -4.4785,10 -10,10 -5.5234,0 -10,-4.478 -10,-10 0,-5.5229 4.4766,-10 10,-10 5.5215,0 10,4.477 10,10"
   id="path7" />&#10;<path
   fill="#0099cc"
   d="m 157.5088,34.0005 c 0,5.521 -4.4785,10 -10,10 -5.5229,0 -10,-4.478 -10,-10 0,-5.5229 4.4771,-10 10,-10 5.5215,0 10,4.477 10,10"
   id="path8" />&#10;<path
   fill="#0099cc"
   d="m 136.5088,34.0005 c 0,5.521 -4.478,10 -10,10 -5.5229,0 -10,-4.478 -10,-10 0,-5.5229 4.4771,-10 10,-10 5.522,0 10,4.477 10,10"
   id="path9" />&#10;<path
   fill="#0099cc"
   d="m 199.5088,34.0005 c 0,5.521 -4.4785,10 -10,10 -5.5234,0 -10,-4.478 -10,-10 0,-5.5229 4.4766,-10 10,-10 5.5215,0 10,4.477 10,10"
   id="path10" />&#10;<path
   fill="#0099cc"
   d="m 22.5088,58.0005 c 0,5.521 -4.478,10 -10,10 -5.5229,0 -10,-4.478 -10,-10 0,-5.5229 4.4771,-10 10,-10 5.522,0 10,4.477 10,10"
   id="path11" />&#10;<rect
   x="32.008801"
   y="48.0005"
   fill="#0099cc"
   width="93"
   height="20"
   id="rect11" />&#10;<path
   fill="#0099cc"
   d="m 43.5088,58.0005 c 0,5.522 -4.478,10 -10,10 -5.522,0 -10,-4.478 -10,-10 0,-5.522 4.478,-10 10,-10 5.522,0 10,4.478 10,10"
   id="path12" />&#10;<path
   fill="#0099cc"
   d="m 178.5088,58.0005 c 0,5.521 -4.4785,10 -10,10 -5.5234,0 -10,-4.478 -10,-10 0,-5.5229 4.4766,-10 10,-10 5.5215,0 10,4.477 10,10"
   id="path13" />&#10;<path
   fill="#0099cc"
   d="m 157.5088,58.0005 c 0,5.521 -4.4785,10 -10,10 -5.5229,0 -10,-4.478 -10,-10 0,-5.5229 4.4771,-10 10,-10 5.5215,0 10,4.477 10,10"
   id="path14" />&#10;<path
   fill="#0099cc"
   d="m 136.5088,58.0005 c 0,5.521 -4.478,10 -10,10 -5.5229,0 -10,-4.478 -10,-10 0,-5.5229 4.4771,-10 10,-10 5.522,0 10,4.477 10,10"
   id="path15" />&#10;<path
   fill="#0099cc"
   d="m 199.5088,58.0005 c 0,5.521 -4.4785,10 -10,10 -5.5234,0 -10,-4.478 -10,-10 0,-5.5229 4.4766,-10 10,-10 5.5215,0 10,4.477 10,10"
   id="path16" />&#10;<path
   fill="#0099cc"
   d="m 22.5088,82.0005 c 0,5.521 -4.478,10 -10,10 -5.5229,0 -10,-4.478 -10,-10 0,-5.5229 4.4771,-10 10,-10 5.522,0 10,4.477 10,10"
   id="path17" />&#10;<rect
   x="32.008801"
   y="72.000504"
   fill="#0099cc"
   width="93"
   height="20"
   id="rect17" />&#10;<path
   fill="#0099cc"
   d="m 43.5088,82.0005 c 0,5.522 -4.478,10 -10,10 -5.522,0 -10,-4.478 -10,-10 0,-5.522 4.478,-10 10,-10 5.522,0 10,4.478 10,10"
   id="path18" />&#10;<path
   fill="#0099cc"
   d="m 178.5088,82.0005 c 0,5.521 -4.4785,10 -10,10 -5.5234,0 -10,-4.478 -10,-10 0,-5.5229 4.4766,-10 10,-10 5.5215,0 10,4.477 10,10"
   id="path19" />&#10;<path
   fill="#0099cc"
   d="m 157.5088,82.0005 c 0,5.521 -4.4785,10 -10,10 -5.5229,0 -10,-4.478 -10,-10 0,-5.5229 4.4771,-10 10,-10 5.5215,0 10,4.477 10,10"
   id="path20" />&#10;<path
   fill="#0099cc"
   d="m 136.5088,82.0005 c 0,5.521 -4.478,10 -10,10 -5.5229,0 -10,-4.478 -10,-10 0,-5.5229 4.4771,-10 10,-10 5.522,0 10,4.477 10,10"
   id="path21" />&#10;<path
   fill="#0099cc"
   d="m 199.5088,82.0005 c 0,5.521 -4.4785,10 -10,10 -5.5234,0 -10,-4.478 -10,-10 0,-5.5229 4.4766,-10 10,-10 5.5215,0 10,4.477 10,10"
   id="path22" />&#10;<path
   fill="#003399"
   d="m 22.5088,106.0005 c 0,5.5205 -4.478,10 -10,10 -5.5229,0 -10,-4.4775 -10,-10 0,-5.5225 4.4771,-10 10,-10 5.522,0 10,4.4775 10,10"
   id="path23" />&#10;<rect
   x="32.008801"
   y="96.000504"
   fill="#003399"
   width="93"
   height="20"
   id="rect23" />&#10;<path
   fill="#003399"
   d="m 43.5088,106.0005 c 0,5.5225 -4.478,10 -10,10 -5.522,0 -10,-4.4775 -10,-10 0,-5.5225 4.478,-10 10,-10 5.522,0 10,4.4775 10,10"
   id="path24" />&#10;<path
   fill="#003399"
   d="m 178.5088,106.0005 c 0,5.5205 -4.4785,10 -10,10 -5.5234,0 -10,-4.4775 -10,-10 0,-5.5225 4.4766,-10 10,-10 5.5215,0 10,4.4775 10,10"
   id="path25" />&#10;<path
   fill="#003399"
   d="m 157.5088,106.0005 c 0,5.5205 -4.4785,10 -10,10 -5.5229,0 -10,-4.4775 -10,-10 0,-5.5225 4.4771,-10 10,-10 5.5215,0 10,4.4775 10,10"
   id="path26" />&#10;<path
   fill="#003399"
   d="m 136.5088,106.0005 c 0,5.5205 -4.478,10 -10,10 -5.5229,0 -10,-4.4775 -10,-10 0,-5.5225 4.4771,-10 10,-10 5.522,0 10,4.4775 10,10"
   id="path27" />&#10;<path
   fill="#003399"
   d="m 199.5088,106.0005 c 0,5.5205 -4.4785,10 -10,10 -5.5234,0 -10,-4.4775 -10,-10 0,-5.5225 4.4766,-10 10,-10 5.5215,0 10,4.4775 10,10"
   id="path28" />&#10;<path
   fill="#0099cc"
   d="m 22.5088,130.001 c 0,5.5195 -4.478,10 -10,10 -5.5229,0 -10,-4.4805 -10,-10 0,-5.5234 4.4771,-10 10,-10 5.522,0 10,4.4765 10,10"
   id="path29" />&#10;<rect
   x="32.008801"
   y="120.001"
   fill="#0099cc"
   width="93"
   height="20"
   id="rect29" />&#10;<path
   fill="#0099cc"
   d="m 43.5088,130.001 c 0,5.5215 -4.478,10 -10,10 -5.522,0 -10,-4.4785 -10,-10 0,-5.5234 4.478,-10 10,-10 5.522,0 10,4.4765 10,10"
   id="path30" />&#10;<path
   fill="#0099cc"
   d="m 178.5088,130.001 c 0,5.5195 -4.4785,10 -10,10 -5.5234,0 -10,-4.4805 -10,-10 0,-5.5234 4.4766,-10 10,-10 5.5215,0 10,4.4765 10,10"
   id="path31" />&#10;<path
   fill="#0099cc"
   d="m 157.5088,130.001 c 0,5.5195 -4.4785,10 -10,10 -5.5229,0 -10,-4.4805 -10,-10 0,-5.5234 4.4771,-10 10,-10 5.5215,0 10,4.4765 10,10"
   id="path32" />&#10;<path
   fill="#0099cc"
   d="m 136.5088,130.001 c 0,5.5195 -4.478,10 -10,10 -5.5229,0 -10,-4.4805 -10,-10 0,-5.5234 4.4771,-10 10,-10 5.522,0 10,4.4765 10,10"
   id="path33" />&#10;<path
   fill="#0099cc"
   d="m 199.5088,130.001 c 0,5.5195 -4.4785,10 -10,10 -5.5234,0 -10,-4.4805 -10,-10 0,-5.5234 4.4766,-10 10,-10 5.5215,0 10,4.4765 10,10"
   id="path34" />&#10;<path
   fill="#0099cc"
   d="m 22.5088,154.001 c 0,5.5195 -4.478,10 -10,10 -5.5229,0 -10,-4.4805 -10,-10 0,-5.5234 4.4771,-10 10,-10 5.522,0 10,4.4765 10,10"
   id="path35" />&#10;<rect
   x="32.008801"
   y="144.00101"
   fill="#0099cc"
   width="93"
   height="20"
   id="rect35" />&#10;<path
   fill="#0099cc"
   d="m 43.5088,154.001 c 0,5.5215 -4.478,10 -10,10 -5.522,0 -10,-4.4785 -10,-10 0,-5.5234 4.478,-10 10,-10 5.522,0 10,4.4765 10,10"
   id="path36" />&#10;<path
   fill="#0099cc"
   d="m 178.5088,154.001 c 0,5.5195 -4.4785,10 -10,10 -5.5234,0 -10,-4.4805 -10,-10 0,-5.5234 4.4766,-10 10,-10 5.5215,0 10,4.4765 10,10"
   id="path37" />&#10;<path
   fill="#0099cc"
   d="m 157.5088,154.001 c 0,5.5195 -4.4785,10 -10,10 -5.5229,0 -10,-4.4805 -10,-10 0,-5.5234 4.4771,-10 10,-10 5.5215,0 10,4.4765 10,10"
   id="path38" />&#10;<path
   fill="#0099cc"
   d="m 136.5088,154.001 c 0,5.5195 -4.478,10 -10,10 -5.5229,0 -10,-4.4805 -10,-10 0,-5.5234 4.4771,-10 10,-10 5.522,0 10,4.4765 10,10"
   id="path39" />&#10;<path
   fill="#0099cc"
   d="m 199.5088,154.001 c 0,5.5195 -4.4785,10 -10,10 -5.5234,0 -10,-4.4805 -10,-10 0,-5.5234 4.4766,-10 10,-10 5.5215,0 10,4.4765 10,10"
   id="path40" />&#10;<path
   fill="#0099cc"
   d="m 22.5088,178.001 c 0,5.5195 -4.478,10 -10,10 -5.5229,0 -10,-4.4805 -10,-10 0,-5.5234 4.4771,-10 10,-10 5.522,0 10,4.4765 10,10"
   id="path41" />&#10;<rect
   x="32.008801"
   y="168.00101"
   fill="#0099cc"
   width="93"
   height="20"
   id="rect41" />&#10;<path
   fill="#0099cc"
   d="m 43.5088,178.001 c 0,5.5215 -4.478,10 -10,10 -5.522,0 -10,-4.4785 -10,-10 0,-5.5234 4.478,-10 10,-10 5.522,0 10,4.4765 10,10"
   id="path42" />&#10;<path
   fill="#0099cc"
   d="m 178.5088,178.001 c 0,5.5195 -4.4785,10 -10,10 -5.5234,0 -10,-4.4805 -10,-10 0,-5.5234 4.4766,-10 10,-10 5.5215,0 10,4.4765 10,10"
   id="path43" />&#10;<path
   fill="#0099cc"
   d="m 157.5088,178.001 c 0,5.5195 -4.4785,10 -10,10 -5.5229,0 -10,-4.4805 -10,-10 0,-5.5234 4.4771,-10 10,-10 5.5215,0 10,4.4765 10,10"
   id="path44" />&#10;<path
   fill="#0099cc"
   d="m 136.5088,178.001 c 0,5.5195 -4.478,10 -10,10 -5.5229,0 -10,-4.4805 -10,-10 0,-5.5234 4.4771,-10 10,-10 5.522,0 10,4.4765 10,10"
   id="path45" />&#10;<path
   fill="#0099cc"
   d="m 199.5088,178.001 c 0,5.5195 -4.4785,10 -10,10 -5.5234,0 -10,-4.4805 -10,-10 0,-5.5234 4.4766,-10 10,-10 5.5215,0 10,4.4765 10,10"
   id="path46" />&#10;<rect
   y="199.9053"
   fill="#0099cc"
   width="740"
   height="40"
   id="rect46"
   x="0" />&#10;<g
   id="g63">&#10;	<path
   fill="#ffffff"
   d="m 177.4116,231.6416 v -24.125 h 8.7813 v 16.375 h 7.3599 v 7.75 z"
   id="path47" />&#10;	<path
   fill="#ffffff"
   d="m 195.6895,209.3916 c 0,-1.2383 0.4321,-2.209 1.2969,-2.9121 0.8643,-0.7051 1.9478,-1.0566 3.25,-1.0566 1.3018,0 2.3853,0.3516 3.25,1.0566 0.8643,0.7031 1.2974,1.6738 1.2974,2.9121 0,0.7031 -0.1289,1.3066 -0.3848,1.8086 -0.2563,0.501 -0.5928,0.9121 -1.0088,1.2314 -0.416,0.3203 -0.8965,0.5596 -1.4409,0.7197 -0.5444,0.1601 -1.1152,0.2402 -1.7129,0.2402 -0.5977,0 -1.1689,-0.0801 -1.7134,-0.2402 -0.5445,-0.1601 -1.0249,-0.3994 -1.4409,-0.7197 -0.416,-0.3193 -0.7524,-0.7305 -1.0083,-1.2314 -0.2564,-0.502 -0.3843,-1.1055 -0.3843,-1.8086 z m 8.6562,5.25 v 17 h -8.25 v -17 z"
   id="path48" />&#10;	<path
   fill="#ffffff"
   d="m 214.897,214.2666 c 1.0879,0 2.0469,0.2441 2.877,0.7324 0.832,0.4873 1.5244,1.1797 2.0791,2.0742 h 0.2236 l -0.2236,-2.4316 h 8.0049 v 16 c 0,1.6641 -0.3145,3.083 -0.9434,4.2568 -0.6289,1.1729 -1.4668,2.1328 -2.5117,2.8799 -1.0449,0.7461 -2.2559,1.2949 -3.6309,1.6484 -1.376,0.3516 -2.7988,0.5273 -4.2705,0.5273 -1.3438,0 -2.5869,-0.1172 -3.7275,-0.3516 -1.1406,-0.2344 -2.3301,-0.5654 -3.5664,-0.9922 l -0.832,-0.2871 1.8242,-5.7266 c 0.7881,0.6816 1.7314,1.1973 2.8301,1.5488 1.0977,0.3516 2.1367,0.5273 3.1172,0.5273 1.1299,0 2.0146,-0.3516 2.6543,-1.0566 0.6396,-0.7031 1.0127,-1.5996 1.1191,-2.6875 l 0.1602,-1.7285 h -0.2246 c -0.2129,0.4707 -0.501,0.8809 -0.8633,1.2324 -0.3623,0.3525 -0.7676,0.6465 -1.2148,0.8809 -0.4472,0.2344 -0.9219,0.4102 -1.4229,0.5273 -0.501,0.1171 -0.9971,0.1758 -1.4873,0.1758 -1.1514,0 -2.1797,-0.2666 -3.0859,-0.7988 -0.9063,-0.5332 -1.6738,-1.2207 -2.3027,-2.0635 -0.6289,-0.8418 -1.1035,-1.7959 -1.4229,-2.8623 -0.3194,-1.0664 -0.4795,-2.1211 -0.4795,-3.166 0,-1.0664 0.1602,-2.1211 0.4795,-3.166 0.3193,-1.0449 0.7939,-1.9941 1.4229,-2.8477 0.6289,-0.8516 1.3955,-1.5391 2.3008,-2.0625 0.906,-0.5213 1.9451,-0.783 3.117,-0.783 z m 3.167,11.2813 c 0.7021,0 1.2236,-0.2334 1.5635,-0.7012 0.3418,-0.4668 0.5117,-1.0195 0.5117,-1.6572 0,-0.6377 -0.1865,-1.2061 -0.5586,-1.7051 -0.373,-0.499 -0.9004,-0.749 -1.5801,-0.749 -0.6602,0 -1.2031,0.2344 -1.6289,0.7012 -0.4258,0.4678 -0.6387,1.041 -0.6387,1.7207 0,0.6797 0.207,1.248 0.623,1.7051 0.4141,0.4569 0.9844,0.6855 1.7081,0.6855 z"
   id="path49" />&#10;	<path
   fill="#ffffff"
   d="m 230.6489,223.2217 c 0,-1.0664 0.1602,-2.1318 0.4795,-3.1982 0.3193,-1.0654 0.7939,-2.0254 1.4229,-2.8779 0.6289,-0.8535 1.4004,-1.5459 2.3174,-2.0791 0.916,-0.5332 1.9717,-0.7998 3.165,-0.7998 1.0225,0 1.9492,0.1914 2.7813,0.5723 0.8301,0.3809 1.5547,0.9863 2.1738,1.8184 h 0.1914 l -0.2559,-2.0156 h 8.0996 v 17 h -8.0996 l 0.2559,-2.251 h -0.1846 c -0.7471,0.79 -1.5029,1.4248 -2.2705,1.9053 -0.7676,0.4805 -1.7383,0.7207 -2.9111,0.7207 -1.1514,0 -2.1748,-0.2666 -3.0713,-0.7988 -0.8945,-0.5332 -1.6465,-1.2207 -2.2539,-2.0635 -0.6084,-0.8418 -1.0664,-1.7852 -1.376,-2.8301 -0.3096,-1.0449 -0.4639,-2.0793 -0.4639,-3.1027 z m 8.1875,-0.1602 c 0,0.6807 0.1699,1.2656 0.5107,1.7539 0.3408,0.4883 0.8838,0.7324 1.6299,0.7324 0.7871,0 1.3516,-0.2598 1.6914,-0.7813 0.3418,-0.5195 0.5117,-1.1094 0.5117,-1.7686 0,-0.6582 -0.2031,-1.2002 -0.6074,-1.625 -0.4043,-0.4248 -0.9365,-0.6377 -1.5957,-0.6377 -0.6602,0 -1.1826,0.2344 -1.5664,0.7012 -0.3828,0.4679 -0.5742,1.0099 -0.5742,1.6251 z"
   id="path50" />&#10;	<path
   fill="#ffffff"
   d="m 270.8657,207.5166 h 9.0234 l 3.3281,12.6719 h 0.2246 c 0.084,-0.5332 0.1699,-1.0723 0.2559,-1.6152 0.084,-0.5449 0.2021,-1.0723 0.3516,-1.584 l 2.7197,-9.4727 h 8.9287 l 3.9668,24.125 h -8.4795 l -1.1514,-13.2188 h -0.1924 c -0.043,0.4053 -0.1182,0.8105 -0.2236,1.2168 -0.1074,0.4043 -0.2246,0.7998 -0.3525,1.1836 l -3.4873,10.8184 h -5.1211 l -3.1357,-10.21 c -0.1494,-0.4912 -0.2666,-0.9873 -0.3525,-1.4883 -0.085,-0.501 -0.1484,-1.0088 -0.1914,-1.5205 H 276.69 c -0.043,0.4912 -0.0811,0.9766 -0.1133,1.457 -0.0313,0.4795 -0.0684,0.9648 -0.1113,1.4551 l -1.0234,10.3066 h -8.4805 z"
   id="path51" />&#10;	<path
   fill="#ffffff"
   d="m 301.6567,223.2217 c 0,-1.0664 0.1602,-2.1318 0.4795,-3.1982 0.3193,-1.0654 0.7939,-2.0254 1.4229,-2.8779 0.6289,-0.8535 1.4004,-1.5459 2.3174,-2.0791 0.916,-0.5332 1.9717,-0.7998 3.165,-0.7998 1.0225,0 1.9492,0.1914 2.7813,0.5723 0.8301,0.3809 1.5547,0.9863 2.1738,1.8184 h 0.1914 l -0.2559,-2.0156 h 8.0996 v 17 h -8.0996 l 0.2559,-2.251 h -0.1846 c -0.7471,0.79 -1.5029,1.4248 -2.2705,1.9053 -0.7676,0.4805 -1.7383,0.7207 -2.9111,0.7207 -1.1514,0 -2.1748,-0.2666 -3.0713,-0.7988 -0.8945,-0.5332 -1.6465,-1.2207 -2.2539,-2.0635 -0.6084,-0.8418 -1.0664,-1.7852 -1.376,-2.8301 -0.3096,-1.0449 -0.4639,-2.0793 -0.4639,-3.1027 z m 8.1875,-0.1602 c 0,0.6807 0.1699,1.2656 0.5107,1.7539 0.3408,0.4883 0.8838,0.7324 1.6299,0.7324 0.7871,0 1.3516,-0.2598 1.6914,-0.7813 0.3418,-0.5195 0.5117,-1.1094 0.5117,-1.7686 0,-0.6582 -0.2031,-1.2002 -0.6074,-1.625 -0.4043,-0.4248 -0.9365,-0.6377 -1.5957,-0.6377 -0.6602,0 -1.1826,0.2344 -1.5664,0.7012 -0.3828,0.4679 -0.5742,1.0099 -0.5742,1.6251 z"
   id="path52" />&#10;	<path
   fill="#ffffff"
   d="m 325.2583,214.6416 h 8.0625 l -0.3164,2.7285 h 0.1914 c 0.4063,-0.4688 0.7949,-0.8955 1.1699,-1.2793 0.373,-0.3838 0.7686,-0.709 1.1855,-0.9766 0.416,-0.2656 0.875,-0.4746 1.377,-0.623 0.502,-0.1504 1.084,-0.2246 1.7461,-0.2246 1.0684,0 1.9707,0.1875 2.709,0.5605 0.7363,0.373 1.3457,0.875 1.8262,1.5039 0.4805,0.6289 0.8271,1.3594 1.041,2.1914 0.2129,0.832 0.3203,1.7168 0.3203,2.6563 v 10.4629 h -8.25 v -8.2871 c 0,-0.2559 -0.006,-0.5234 -0.0156,-0.8008 -0.0117,-0.2773 -0.0654,-0.5332 -0.1621,-0.7676 -0.0977,-0.2344 -0.2373,-0.4316 -0.4199,-0.5918 -0.1836,-0.1602 -0.459,-0.2402 -0.8242,-0.2402 -0.3457,0 -0.6094,0.0693 -0.793,0.208 -0.1836,0.1387 -0.3184,0.3203 -0.4043,0.5439 -0.0859,0.2246 -0.1396,0.4688 -0.1611,0.7363 -0.0215,0.2656 -0.0322,0.5273 -0.0322,0.7832 v 8.416 h -8.25 v -16.9999 z"
   id="path53" />&#10;	<path
   fill="#ffffff"
   d="m 347.1919,223.2217 c 0,-1.0664 0.1602,-2.1318 0.4795,-3.1982 0.3193,-1.0654 0.7939,-2.0254 1.4229,-2.8779 0.6289,-0.8535 1.4004,-1.5459 2.3174,-2.0791 0.916,-0.5332 1.9717,-0.7998 3.165,-0.7998 1.0225,0 1.9492,0.1914 2.7813,0.5723 0.8301,0.3809 1.5547,0.9863 2.1738,1.8184 h 0.1914 l -0.2559,-2.0156 h 8.0996 v 17 h -8.0996 l 0.2559,-2.251 h -0.1846 c -0.7471,0.79 -1.5029,1.4248 -2.2705,1.9053 -0.7676,0.4805 -1.7383,0.7207 -2.9111,0.7207 -1.1514,0 -2.1748,-0.2666 -3.0713,-0.7988 -0.8945,-0.5332 -1.6465,-1.2207 -2.2539,-2.0635 -0.6084,-0.8418 -1.0664,-1.7852 -1.376,-2.8301 -0.3096,-1.0449 -0.4639,-2.0793 -0.4639,-3.1027 z m 8.1875,-0.1602 c 0,0.6807 0.1699,1.2656 0.5107,1.7539 0.3408,0.4883 0.8838,0.7324 1.6299,0.7324 0.7871,0 1.3516,-0.2598 1.6914,-0.7813 0.3418,-0.5195 0.5117,-1.1094 0.5117,-1.7686 0,-0.6582 -0.2031,-1.2002 -0.6074,-1.625 -0.4043,-0.4248 -0.9365,-0.6377 -1.5957,-0.6377 -0.6602,0 -1.1826,0.2344 -1.5664,0.7012 -0.3828,0.4679 -0.5742,1.0099 -0.5742,1.6251 z"
   id="path54" />&#10;	<path
   fill="#ffffff"
   d="m 377.582,214.2666 c 1.0879,0 2.0469,0.2441 2.877,0.7324 0.832,0.4873 1.5254,1.1797 2.0801,2.0742 h 0.2227 l -0.2227,-2.4316 h 8.0039 v 16 c 0,1.6641 -0.3145,3.083 -0.9434,4.2568 -0.6289,1.1729 -1.4668,2.1328 -2.5117,2.8799 -1.0449,0.7461 -2.2559,1.2949 -3.6309,1.6484 -1.375,0.3516 -2.7988,0.5273 -4.2695,0.5273 -1.3438,0 -2.5879,-0.1172 -3.7285,-0.3516 -1.1406,-0.2344 -2.3301,-0.5654 -3.5664,-0.9922 l -0.832,-0.2871 1.8242,-5.7266 c 0.7891,0.6816 1.7324,1.1973 2.8301,1.5488 1.0977,0.3515 2.1367,0.5273 3.1172,0.5273 1.1309,0 2.0156,-0.3516 2.6543,-1.0566 0.6406,-0.7031 1.0137,-1.5996 1.1191,-2.6875 l 0.1602,-1.7285 h -0.2246 c -0.2129,0.4707 -0.5,0.8809 -0.8633,1.2324 -0.3613,0.3525 -0.7676,0.6465 -1.2148,0.8809 -0.4472,0.2344 -0.9219,0.4102 -1.4219,0.5273 -0.502,0.1172 -0.998,0.1758 -1.4883,0.1758 -1.1504,0 -2.1797,-0.2666 -3.0859,-0.7988 -0.9063,-0.5332 -1.6738,-1.2207 -2.3027,-2.0635 -0.6289,-0.8418 -1.1035,-1.7959 -1.4224,-2.8623 -0.3193,-1.0664 -0.4795,-2.1211 -0.4795,-3.166 0,-1.0664 0.1602,-2.1211 0.4795,-3.166 0.3188,-1.0449 0.7935,-1.9941 1.4224,-2.8477 0.6289,-0.8516 1.3965,-1.5391 2.3008,-2.0625 0.9061,-0.5213 1.9452,-0.783 3.117,-0.783 z m 3.168,11.2813 c 0.7012,0 1.2227,-0.2334 1.5625,-0.7012 0.3418,-0.4668 0.5117,-1.0195 0.5117,-1.6572 0,-0.6377 -0.1855,-1.2061 -0.5586,-1.7051 -0.3731,-0.499 -0.9004,-0.749 -1.5801,-0.749 -0.6602,0 -1.2031,0.2344 -1.6289,0.7012 -0.4258,0.4678 -0.6387,1.041 -0.6387,1.7207 0,0.6797 0.207,1.248 0.623,1.7051 0.4142,0.4569 0.9845,0.6855 1.7091,0.6855 z"
   id="path55" />&#10;	<path
   fill="#ffffff"
   d="m 393.3965,223.4131 c 0,-1.4063 0.2559,-2.6758 0.7676,-3.8047 0.5117,-1.1309 1.2051,-2.0898 2.0801,-2.8789 0.875,-0.7891 1.9082,-1.3965 3.1035,-1.8232 1.1934,-0.4268 2.4629,-0.6396 3.8066,-0.6396 1.4512,0 2.8105,0.2139 4.0801,0.6406 1.2676,0.4277 2.3711,1.0518 3.3105,1.874 0.9375,0.8223 1.6797,1.8203 2.2227,2.9951 0.5449,1.1738 0.8164,2.5078 0.8164,4.0029 0,0.1279 0,0.2568 0,0.3838 0,0.1289 -0.01,0.2568 -0.0313,0.3848 h -12 c 0,0.3408 0.0215,0.6875 0.0645,1.0381 0.043,0.3516 0.1328,0.665 0.2715,0.9424 0.1387,0.2764 0.3359,0.5 0.5918,0.6699 0.2559,0.1709 0.5977,0.2559 1.0254,0.2559 0.4258,0 0.7871,-0.1328 1.0859,-0.3994 0.2988,-0.2666 0.4922,-0.6016 0.5762,-1.0068 h 8.0332 c -0.2773,1.0215 -0.748,1.9043 -1.4082,2.6494 -0.6621,0.7451 -1.4355,1.3672 -2.3203,1.8672 -0.8848,0.5 -1.834,0.8672 -2.8477,1.1006 -1.0117,0.2344 -2.0098,0.3516 -2.9902,0.3516 -1.3438,0 -2.6289,-0.1758 -3.8555,-0.5273 -1.2266,-0.3515 -2.3145,-0.8789 -3.2637,-1.583 -0.9492,-0.7041 -1.7051,-1.5938 -2.2715,-2.6709 -0.5644,-1.0764 -0.8476,-2.3508 -0.8476,-3.8225 z m 8.1562,-2.3965 h 3.875 c 0,-0.5781 -0.1875,-1.0938 -0.5605,-1.543 -0.373,-0.4512 -0.8594,-0.6758 -1.457,-0.6758 -0.6191,0 -1.084,0.2197 -1.3926,0.6592 -0.3106,0.4395 -0.4649,0.96 -0.4649,1.5596 z"
   id="path56" />&#10;	<path
   fill="#ffffff"
   d="m 416.2012,214.6416 h 8.25 l -0.1914,2.2813 h 0.1914 c 0.3418,-0.5117 0.6875,-0.9385 1.0391,-1.2793 0.3535,-0.3418 0.7363,-0.6133 1.1523,-0.8164 0.416,-0.2031 0.8691,-0.3477 1.3613,-0.4326 0.4902,-0.085 1.0332,-0.1279 1.6309,-0.1279 h 0.5762 v 8.3828 c -0.4258,-0.252 -0.8223,-0.4668 -1.1836,-0.6465 -0.3633,-0.1777 -0.8105,-0.2676 -1.3438,-0.2676 -1.0664,0 -1.873,0.293 -2.416,0.8789 -0.5449,0.5859 -0.8164,1.4219 -0.8164,2.5078 v 6.5195 h -8.25 z"
   id="path57" />&#10;	<path
   fill="#ffffff"
   d="m 444.916,219.6436 c 0,-1.8975 0.3516,-3.6133 1.0547,-5.1484 0.7051,-1.5342 1.6582,-2.8457 2.8652,-3.9316 1.2051,-1.0879 2.6172,-1.9297 4.2383,-2.5264 1.6211,-0.5967 3.3496,-0.8955 5.1855,-0.8955 1.834,0 3.5625,0.2988 5.1836,0.8955 1.6211,0.5967 3.0332,1.4385 4.2402,2.5264 1.2051,1.0859 2.1582,2.3975 2.8633,3.9316 0.7031,1.5352 1.0566,3.251 1.0566,5.1484 0,1.9395 -0.3535,3.6719 -1.0566,5.1953 -0.7051,1.5234 -1.6582,2.8184 -2.8633,3.8848 -1.207,1.0664 -2.6191,1.8809 -4.2402,2.4453 -1.6211,0.5644 -3.3496,0.8477 -5.1836,0.8477 -1.8359,0 -3.5645,-0.2832 -5.1855,-0.8477 -1.621,-0.5645 -3.0332,-1.3789 -4.2383,-2.4453 -1.207,-1.0664 -2.1602,-2.3613 -2.8652,-3.8848 -0.7031,-1.5235 -1.0547,-3.2559 -1.0547,-5.1953 z m 8.8438,0.123 c 0,0.7031 0.1055,1.335 0.3184,1.8984 0.2129,0.5634 0.5215,1.0469 0.9258,1.4512 0.4043,0.4043 0.8828,0.7168 1.4355,0.9404 0.5527,0.2236 1.1602,0.335 1.8203,0.335 0.6797,0 1.291,-0.1113 1.834,-0.335 0.543,-0.2237 1.0156,-0.5361 1.4199,-0.9404 0.4043,-0.4043 0.7129,-0.8877 0.9258,-1.4512 0.2129,-0.5635 0.3203,-1.1953 0.3203,-1.8984 0,-0.6367 -0.1074,-1.2383 -0.3203,-1.8008 -0.2129,-0.5645 -0.5098,-1.0635 -0.8926,-1.5 -0.3828,-0.4355 -0.8516,-0.7754 -1.4043,-1.0195 -0.5547,-0.2441 -1.1816,-0.3672 -1.8828,-0.3672 -0.7031,0 -1.3301,0.123 -1.8848,0.3672 -0.5527,0.2441 -1.0215,0.584 -1.4043,1.0195 -0.3828,0.4365 -0.6797,0.9355 -0.8926,1.5 -0.2129,0.5625 -0.3183,1.1641 -0.3183,1.8008 z"
   id="path58" />&#10;	<path
   fill="#ffffff"
   d="m 474.3125,214.6416 h 8.0625 l -0.3184,2.7285 h 0.1934 c 0.4043,-0.4688 0.7949,-0.8955 1.168,-1.2793 0.375,-0.3838 0.7695,-0.709 1.1855,-0.9766 0.418,-0.2656 0.877,-0.4746 1.3789,-0.623 0.502,-0.1504 1.084,-0.2246 1.7461,-0.2246 1.0684,0 1.9707,0.1875 2.707,0.5605 0.7383,0.373 1.3457,0.875 1.8262,1.5039 0.4805,0.6289 0.8281,1.3594 1.043,2.1914 0.2129,0.832 0.3203,1.7168 0.3203,2.6563 v 10.4629 h -8.25 v -8.2871 c 0,-0.2559 -0.006,-0.5234 -0.0176,-0.8008 -0.01,-0.2773 -0.0645,-0.5332 -0.1602,-0.7676 -0.0977,-0.2344 -0.2383,-0.4316 -0.4219,-0.5918 -0.1836,-0.1602 -0.457,-0.2402 -0.8242,-0.2402 -0.3438,0 -0.6074,0.0693 -0.791,0.208 -0.1836,0.1387 -0.3184,0.3203 -0.4043,0.5439 -0.0859,0.2246 -0.1406,0.4688 -0.1621,0.7363 -0.0215,0.2656 -0.0313,0.5273 -0.0313,0.7832 v 8.416 h -8.25 v -16.9999 z"
   id="path59" />&#10;	<path
   fill="#ffffff"
   d="m 497.0254,231.6416 v -25.9375 h 8.25 v 25.9375 z"
   id="path60" />&#10;	<path
   fill="#ffffff"
   d="m 508.9004,209.3916 c 0,-1.2383 0.4316,-2.209 1.2969,-2.9121 0.8633,-0.7051 1.9473,-1.0566 3.25,-1.0566 1.3008,0 2.3848,0.3516 3.25,1.0566 0.8633,0.7031 1.2969,1.6738 1.2969,2.9121 0,0.7031 -0.1289,1.3066 -0.3848,1.8086 -0.2559,0.501 -0.5938,0.9121 -1.0098,1.2314 -0.416,0.3203 -0.8965,0.5596 -1.4395,0.7197 -0.5449,0.1602 -1.1152,0.2402 -1.7129,0.2402 -0.5977,0 -1.1699,-0.0801 -1.7148,-0.2402 -0.543,-0.1602 -1.0234,-0.3994 -1.4395,-0.7197 -0.416,-0.3193 -0.7539,-0.7305 -1.0098,-1.2314 -0.2558,-0.502 -0.3827,-1.1055 -0.3827,-1.8086 z m 8.6562,5.25 v 17 h -8.25 v -17 z"
   id="path61" />&#10;	<path
   fill="#ffffff"
   d="m 521.3184,214.6416 h 8.0625 l -0.3164,2.7285 h 0.1914 c 0.4063,-0.4688 0.7949,-0.8955 1.1699,-1.2793 0.373,-0.3838 0.7695,-0.709 1.1855,-0.9766 0.416,-0.2656 0.875,-0.4746 1.377,-0.623 0.502,-0.1504 1.084,-0.2246 1.7461,-0.2246 1.0684,0 1.9707,0.1875 2.709,0.5605 0.7363,0.373 1.3457,0.875 1.8262,1.5039 0.4805,0.6289 0.8281,1.3594 1.041,2.1914 0.2129,0.832 0.3203,1.7168 0.3203,2.6563 v 10.4629 h -8.25 v -8.2871 c 0,-0.2559 -0.006,-0.5234 -0.0156,-0.8008 -0.0117,-0.2773 -0.0645,-0.5332 -0.1621,-0.7676 -0.0976,-0.2344 -0.2363,-0.4316 -0.4199,-0.5918 -0.1836,-0.1602 -0.459,-0.2402 -0.8242,-0.2402 -0.3457,0 -0.6094,0.0693 -0.793,0.208 -0.1836,0.1387 -0.3184,0.3203 -0.4043,0.5439 -0.0859,0.2246 -0.1387,0.4688 -0.1602,0.7363 -0.0215,0.2656 -0.0332,0.5273 -0.0332,0.7832 v 8.416 h -8.25 z"
   id="path62" />&#10;	<path
   fill="#ffffff"
   d="m 543.3145,223.4131 c 0,-1.4063 0.2559,-2.6758 0.7676,-3.8047 0.5117,-1.1309 1.2051,-2.0898 2.0801,-2.8789 0.875,-0.7891 1.9082,-1.3965 3.1035,-1.8232 1.1934,-0.4268 2.4629,-0.6396 3.8066,-0.6396 1.4512,0 2.8105,0.2139 4.0801,0.6406 1.2676,0.4277 2.3711,1.0518 3.3105,1.874 0.9375,0.8223 1.6797,1.8203 2.2227,2.9951 0.5449,1.1738 0.8164,2.5078 0.8164,4.0029 0,0.1279 0,0.2568 0,0.3838 0,0.1289 -0.01,0.2568 -0.0313,0.3848 h -12 c 0,0.3408 0.0215,0.6875 0.0645,1.0381 0.043,0.3516 0.1328,0.665 0.2715,0.9424 0.1387,0.2764 0.3359,0.5 0.5918,0.6699 0.2559,0.1709 0.5977,0.2559 1.0254,0.2559 0.4258,0 0.7871,-0.1328 1.0859,-0.3994 0.2988,-0.2666 0.4922,-0.6016 0.5762,-1.0068 h 8.0332 c -0.2773,1.0215 -0.748,1.9043 -1.4082,2.6494 -0.6621,0.7451 -1.4355,1.3672 -2.3203,1.8672 -0.8848,0.5 -1.834,0.8672 -2.8477,1.1006 -1.0117,0.2344 -2.0098,0.3516 -2.9902,0.3516 -1.3438,0 -2.6289,-0.1758 -3.8555,-0.5273 -1.2266,-0.3515 -2.3145,-0.8789 -3.2637,-1.583 -0.9492,-0.7041 -1.7051,-1.5938 -2.2715,-2.6709 -0.5644,-1.0764 -0.8476,-2.3508 -0.8476,-3.8225 z m 8.1562,-2.3965 h 3.875 c 0,-0.5781 -0.1875,-1.0938 -0.5605,-1.543 -0.373,-0.4512 -0.8594,-0.6758 -1.457,-0.6758 -0.6191,0 -1.084,0.2197 -1.3926,0.6592 -0.3106,0.4395 -0.4649,0.96 -0.4649,1.5596 z"
   id="path63" />&#10;</g>&#10;<g
   id="g69">&#10;	<path
   fill="#0099cc"
   stroke="#000000"
   d="m 385.2324,140.1104 21.7461,-62.5625 h 25.1504 l 22.3262,62.5625 h -24.0703 l -2.0742,-7.8125 H 411.129 l -1.8262,7.8125 z m 39.0938,-22.6875 c -2.0469,-8.5645 -3.209,-13.5371 -3.4863,-14.9189 l -0.6641,-4.1436 h -0.8301 l -4.1504,19.0625 z"
   id="path64" />&#10;	<path
   fill="#0099cc"
   stroke="#000000"
   d="m 456.8516,118.4521 c 0,-2.7656 0.373,-5.5322 1.1211,-8.2988 0.7461,-2.7666 1.8809,-5.2705 3.4023,-7.5117 1.5215,-2.2402 3.4316,-4.0664 5.7285,-5.4775 2.2969,-1.4102 4.9941,-2.1162 8.0938,-2.1162 2.4902,0 4.9531,0.6367 7.3887,1.9092 2.4355,1.2734 4.4004,2.9336 5.8945,4.9805 h 0.7461 c -0.1113,-1.0508 -0.2227,-2.1299 -0.334,-3.2373 -0.1113,-1.1064 -0.2207,-2.1436 -0.332,-3.1123 -0.1113,-0.9687 -0.1953,-1.8125 -0.25,-2.5322 -0.0566,-0.7197 -0.084,-1.2178 -0.084,-1.4951 V 72.7979 h 21.4375 v 67.3125 h -20.1074 l 0.416,-6.5459 h -0.5 c -1.8262,2.3223 -3.957,4.1602 -6.3906,5.5146 -2.4355,1.3535 -5.0918,2.0313 -7.9688,2.0313 -2.9883,0 -5.6172,-0.6924 -7.8848,-2.0742 -2.2695,-1.3828 -4.1797,-3.1533 -5.7285,-5.3115 -1.5488,-2.1582 -2.7109,-4.5791 -3.4863,-7.2627 -0.7754,-2.6836 -1.1621,-5.3536 -1.1621,-8.0099 z m 21.0625,-0.415 c 0,1.6641 0.4707,3.1348 1.4141,4.4102 0.9434,1.2754 2.3008,1.9131 4.0762,1.9131 0.832,0 1.5938,-0.1934 2.2871,-0.582 0.6933,-0.3886 1.2754,-0.9014 1.7461,-1.5391 0.4707,-0.6377 0.8457,-1.3447 1.123,-2.1211 0.2773,-0.7764 0.416,-1.5254 0.416,-2.2471 0,-1.5527 -0.5273,-2.9531 -1.5801,-4.2012 -1.0547,-1.248 -2.3848,-1.8721 -3.9922,-1.8721 -1.7754,0 -3.1328,0.6387 -4.0762,1.9141 -0.9434,1.2754 -1.414,2.7178 -1.414,4.3252 z"
   id="path65" />&#10;	<path
   fill="#0099cc"
   stroke="#000000"
   d="m 516.6113,118.4521 c 0,-2.7656 0.373,-5.5322 1.1201,-8.2988 0.7471,-2.7666 1.8818,-5.2705 3.4033,-7.5117 1.5215,-2.2402 3.4316,-4.0664 5.7285,-5.4775 2.2969,-1.4102 4.9941,-2.1162 8.0938,-2.1162 2.4902,0 4.9521,0.6367 7.3877,1.9092 2.4355,1.2734 4.4004,2.9336 5.8945,4.9805 h 0.7471 c -0.1113,-1.0508 -0.2227,-2.1299 -0.334,-3.2373 -0.1113,-1.1064 -0.2217,-2.1436 -0.333,-3.1123 -0.1113,-0.9687 -0.1943,-1.8125 -0.25,-2.5322 -0.0557,-0.7197 -0.083,-1.2178 -0.083,-1.4951 V 72.7979 h 21.4375 v 67.3125 h -20.1084 l 0.416,-6.5459 h -0.499 c -1.8262,2.3223 -3.957,4.1602 -6.3916,5.5146 -2.4355,1.3535 -5.0918,2.0313 -7.9688,2.0313 -2.9883,0 -5.6162,-0.6924 -7.8848,-2.0742 -2.2695,-1.3828 -4.1787,-3.1533 -5.7275,-5.3115 -1.5498,-2.1582 -2.7119,-4.5791 -3.4863,-7.2627 -0.7754,-2.6837 -1.1621,-5.3536 -1.1621,-8.0099 z m 21.0625,-0.415 c 0,1.6641 0.4707,3.1348 1.4141,4.4102 0.9424,1.2754 2.3008,1.9131 4.0752,1.9131 0.832,0 1.5938,-0.1934 2.2871,-0.582 0.6933,-0.3886 1.2754,-0.9014 1.7471,-1.5391 0.4707,-0.6377 0.8457,-1.3447 1.123,-2.1211 0.2773,-0.7764 0.416,-1.5254 0.416,-2.2471 0,-1.5527 -0.5273,-2.9531 -1.5811,-4.2012 -1.0538,-1.2481 -2.3848,-1.8721 -3.9922,-1.8721 -1.7744,0 -3.1328,0.6387 -4.0752,1.9141 -0.9433,1.2754 -1.414,2.7178 -1.414,4.3252 z"
   id="path66" />&#10;	<path
   fill="#0099cc"
   stroke="#000000"
   d="m 576.4326,118.6182 c 0,-3.873 0.7197,-7.2754 2.1602,-10.208 1.4395,-2.9316 3.3779,-5.3936 5.8154,-7.3857 2.4365,-1.9922 5.2744,-3.4863 8.5146,-4.4824 3.2402,-0.9961 6.6602,-1.4941 10.2598,-1.4941 3.5996,0 7.0186,0.498 10.2588,1.4941 3.2402,0.9961 6.0781,2.4902 8.5156,4.4824 2.4365,1.9922 4.375,4.4541 5.8154,7.3857 1.4395,2.9326 2.1602,6.335 2.1602,10.208 0,3.6523 -0.748,6.876 -2.2432,9.6699 -1.4961,2.7939 -3.4893,5.1455 -5.9814,7.0537 -2.4922,1.9092 -5.3447,3.3477 -8.5566,4.3164 -3.2129,0.9678 -6.5352,1.4521 -9.9688,1.4521 -3.4336,0 -6.7568,-0.4844 -9.9688,-1.4521 -3.2129,-0.9688 -6.0645,-2.4072 -8.5566,-4.3164 -2.4922,-1.9082 -4.4863,-4.2598 -5.9814,-7.0537 -1.4961,-2.794 -2.2432,-6.0176 -2.2432,-9.6699 z m 20.75,-0.3311 c 0,1.7754 0.583,3.2314 1.75,4.3682 1.166,1.1367 2.583,1.7051 4.25,1.7051 1.666,0 3.083,-0.5684 4.25,-1.7051 1.166,-1.1367 1.75,-2.5928 1.75,-4.3682 0,-1.7744 -0.5557,-3.2998 -1.667,-4.5752 -1.1113,-1.2754 -2.5557,-1.9141 -4.333,-1.9141 -1.7783,0 -3.2227,0.6387 -4.334,1.9141 -1.1113,1.2754 -1.666,2.8008 -1.666,4.5752 z"
   id="path67" />&#10;	<path
   fill="#0099cc"
   stroke="#000000"
   d="m 637.0059,96.0479 h 20.9375 l -0.873,7.0645 h 0.498 c 1.0498,-1.2188 2.0586,-2.3271 3.0264,-3.3252 0.9668,-0.998 1.9902,-1.8428 3.0684,-2.5361 1.0781,-0.6924 2.2666,-1.2324 3.5654,-1.6211 1.2988,-0.3877 2.8057,-0.582 4.5195,-0.582 2.7637,0 5.0996,0.4844 7.0068,1.4521 1.9072,0.9688 3.4824,2.2686 4.7266,3.9004 1.2441,1.6328 2.1426,3.5273 2.6953,5.6855 0.5527,2.1582 0.8291,4.4541 0.8291,6.8877 v 27.1367 h -21.4375 v -21.4707 c 0,-0.6621 -0.0137,-1.3525 -0.041,-2.0713 -0.0273,-0.7188 -0.1641,-1.3818 -0.4102,-1.9902 -0.2461,-0.6074 -0.6006,-1.1191 -1.0645,-1.5332 -0.4639,-0.4141 -1.1602,-0.6221 -2.0879,-0.6221 -0.874,0 -1.543,0.1797 -2.0068,0.5391 -0.4638,0.3594 -0.8047,0.8291 -1.0234,1.4092 -0.2187,0.5801 -0.3545,1.2158 -0.4092,1.9063 -0.0547,0.6914 -0.082,1.3682 -0.082,2.0313 v 21.8018 h -21.4375 z"
   id="path68" />&#10;	<path
   fill="#0099cc"
   stroke="#000000"
   d="m 691.875,136.2246 5.4785,-13.2607 1.3281,0.8301 c 1.4941,0.9404 3.2363,1.8535 5.2285,2.7383 1.9922,0.8857 3.9004,1.3281 5.7266,1.3281 0.7188,0 1.4258,-0.1934 2.1172,-0.5811 0.6914,-0.3877 1.0371,-0.9971 1.0371,-1.8281 0,-0.6094 -0.1387,-1.0801 -0.4141,-1.4121 -0.2754,-0.332 -0.6348,-0.5811 -1.0762,-0.7471 -0.4434,-0.166 -0.9121,-0.291 -1.4102,-0.374 -0.4961,-0.083 -0.9668,-0.1523 -1.4082,-0.208 -1.7676,-0.2764 -3.4805,-0.6777 -5.1367,-1.2041 -1.6582,-0.5254 -3.1211,-1.2598 -4.3906,-2.2012 -1.2715,-0.9414 -2.293,-2.1328 -3.0664,-3.5723 -0.7734,-1.4395 -1.1602,-3.1846 -1.1602,-5.2334 0,-2.7686 0.623,-5.1221 1.8672,-7.0605 1.2442,-1.9384 2.8633,-3.5313 4.8555,-4.7773 1.9902,-1.2461 4.2031,-2.1592 6.6367,-2.7412 2.4336,-0.5811 4.8418,-0.8721 7.2207,-0.8721 2.8203,0 5.7539,0.292 8.7969,0.874 3.043,0.582 5.8105,1.5391 8.3008,2.8701 l -5.2285,12.2207 c -1.3848,-0.9961 -2.9336,-1.8535 -4.6484,-2.5732 -1.7168,-0.7188 -3.459,-1.0791 -5.2305,-1.0791 -0.6641,0 -1.3418,0.1387 -2.0332,0.415 -0.6914,0.2763 -1.0371,0.8018 -1.0371,1.5752 0,1.1055 0.5098,1.7832 1.5313,2.0313 1.0215,0.249 2.2773,0.5117 3.7676,0.7881 1.877,0.332 3.6563,0.7598 5.3398,1.2852 1.6835,0.5254 3.1465,1.2588 4.3887,2.1982 1.2422,0.9394 2.2344,2.1563 2.9805,3.6484 0.7441,1.4922 1.1172,3.3721 1.1172,5.6387 0,2.875 -0.6484,5.335 -1.9473,7.3799 -1.2988,2.0459 -2.9727,3.7188 -5.0176,5.0176 -2.0449,1.2988 -4.3379,2.2529 -6.8809,2.8604 -2.543,0.6075 -5.0313,0.9121 -7.4629,0.9121 -3.4863,0 -6.918,-0.4697 -10.293,-1.4072 -3.3749,-0.9387 -6.6679,-2.0978 -9.8769,-3.4787 z"
   id="path69" />&#10;</g>&#10;</svg>
