<?xml version="1.0" encoding="UTF-8" standalone="no"?>
<svg
   version="1.0"
   id="Ebene_1"
   inkscape:export-ydpi="166.05405"
   ns0:docname="addon.svg"
   inkscape:export-xdpi="166.05405"
   inkscape:version="1.3 (0e150ed6c4, 2023-07-21)"
   width="500"
   height="162"
   viewBox="0 0 740 243.1191"
   overflow="visible"
   enable-background="new 0 0 740 243.1191"
   xml:space="preserve"
   sodipodi:docname="addon1.svg"
   xmlns:inkscape="http://www.inkscape.org/namespaces/inkscape"
   xmlns:sodipodi="http://sodipodi.sourceforge.net/DTD/sodipodi-0.dtd"
   xmlns="http://www.w3.org/2000/svg"
   xmlns:svg="http://www.w3.org/2000/svg"
   xmlns:ns0="https://sourceforge.net/projects/sodipodi/"><defs
   id="defs72" /><sodipodi:namedview
   id="namedview72"
   pagecolor="#ffffff"
   bordercolor="#000000"
   borderopacity="0.25"
   inkscape:showpageshadow="2"
   inkscape:pageopacity="0.0"
   inkscape:pagecheckerboard="0"
   inkscape:deskcolor="#d1d1d1"
   inkscape:zoom="1.846"
   inkscape:cx="250"
   inkscape:cy="81.256771"
   inkscape:window-width="1080"
   inkscape:window-height="658"
   inkscape:window-x="-6"
   inkscape:window-y="-6"
   inkscape:window-maximized="1"
   inkscape:current-layer="Ebene_1" />&#10;<ns0:namedview
   inkscape:window-width="1080"
   inkscape:cx="370.00022"
   borderopacity="0.25"
   pagecolor="#ffffff"
   bordercolor="#000000"
   inkscape:cy="121.16966"
   inkscape:zoom="1.1554047"
   id="namedview48"
   inkscape:window-y="-6"
   inkscape:window-maximized="1"
   inkscape:window-x="-6"
   inkscape:window-height="658"
   inkscape:pageopacity="0.0"
   inkscape:pagecheckerboard="0"
   inkscape:current-layer="Ebene_1"
   inkscape:deskcolor="#d1d1d1"
   inkscape:showpageshadow="2">&#10;	</ns0:namedview>&#10;<rect
   id="rect1"
   x="10"
   fill="#003399"
   width="177"
   height="20" />&#10;<path
   id="path1"
   fill="#003399"
   d="M19.9932,9.6191c0.2109,5.5181-4.0933,10.1641-9.6113,10.374  c-5.52,0.2109-10.1641-4.0933-10.375-9.6104c-0.2109-5.521,4.0923-10.165,9.6113-10.376S19.7822,4.0991,19.9932,9.6191" />&#10;<path
   id="path2"
   fill="#0099CC"
   d="M20,34c0,5.521-4.478,10-10,10C4.4771,44,0,39.522,0,34c0-5.5229,4.4771-10,10-10  C15.522,24,20,28.4771,20,34" />&#10;<rect
   id="rect2"
   x="29.5"
   y="24"
   fill="#0099CC"
   width="93"
   height="20" />&#10;<path
   id="path3"
   fill="#0099CC"
   d="M41,34c0,5.522-4.478,10-10,10s-10-4.478-10-10s4.478-10,10-10S41,28.478,41,34" />&#10;<path
   id="path4"
   fill="#003399"
   d="M197,10.001c0,5.521-4.478,9.999-10,9.999c-5.5229,0-10-4.479-10-9.999  C177,4.4771,181.4771,0,187,0C192.522,0,197,4.4771,197,10.001" />&#10;<path
   id="path5"
   fill="#0099CC"
   d="M176,34c0,5.521-4.478,10-10,10c-5.5229,0-10-4.478-10-10c0-5.5229,4.4771-10,10-10  C171.522,24,176,28.4771,176,34" />&#10;<path
   id="path6"
   fill="#0099CC"
   d="M155,34c0,5.521-4.478,10-10,10c-5.5229,0-10-4.478-10-10c0-5.5229,4.4771-10,10-10  C150.522,24,155,28.4771,155,34" />&#10;<path
   id="path7"
   fill="#0099CC"
   d="M134,34c0,5.521-4.478,10-10,10c-5.5229,0-10-4.478-10-10c0-5.5229,4.4771-10,10-10  C129.522,24,134,28.4771,134,34" />&#10;<rect
   id="rect7"
   y="202"
   fill="#0099CC"
   width="740"
   height="40" />&#10;<path
   id="path8"
   fill="#0099CC"
   d="M197,34c0,5.521-4.478,10-10,10c-5.5229,0-10-4.478-10-10c0-5.5229,4.4771-10,10-10  C192.522,24,197,28.4771,197,34" />&#10;<path
   id="path9"
   fill="#0099CC"
   d="M20,58c0,5.521-4.478,10-10,10C4.4771,68,0,63.522,0,58c0-5.5229,4.4771-10,10-10  C15.522,48,20,52.4771,20,58" />&#10;<rect
   id="rect9"
   x="29.5"
   y="48"
   fill="#0099CC"
   width="93"
   height="20" />&#10;<path
   id="path10"
   fill="#0099CC"
   d="M41,58c0,5.522-4.478,10-10,10s-10-4.478-10-10s4.478-10,10-10S41,52.478,41,58" />&#10;<path
   id="path11"
   fill="#0099CC"
   d="M176,58c0,5.521-4.478,10-10,10c-5.5229,0-10-4.478-10-10c0-5.5229,4.4771-10,10-10  C171.522,48,176,52.4771,176,58" />&#10;<path
   id="path12"
   fill="#0099CC"
   d="M155,58c0,5.521-4.478,10-10,10c-5.5229,0-10-4.478-10-10c0-5.5229,4.4771-10,10-10  C150.522,48,155,52.4771,155,58" />&#10;<path
   id="path13"
   fill="#0099CC"
   d="M134,58c0,5.521-4.478,10-10,10c-5.5229,0-10-4.478-10-10c0-5.5229,4.4771-10,10-10  C129.522,48,134,52.4771,134,58" />&#10;<path
   id="path14"
   fill="#0099CC"
   d="M197,58c0,5.521-4.478,10-10,10c-5.5229,0-10-4.478-10-10c0-5.5229,4.4771-10,10-10  C192.522,48,197,52.4771,197,58" />&#10;<path
   id="path15"
   fill="#0099CC"
   d="M20,82c0,5.521-4.478,10-10,10C4.4771,92,0,87.522,0,82c0-5.5229,4.4771-10,10-10  C15.522,72,20,76.4771,20,82" />&#10;<rect
   id="rect15"
   x="29.5"
   y="72"
   fill="#0099CC"
   width="93"
   height="20" />&#10;<path
   id="path16"
   fill="#0099CC"
   d="M41,82c0,5.522-4.478,10-10,10s-10-4.478-10-10s4.478-10,10-10S41,76.478,41,82" />&#10;<path
   id="path17"
   fill="#0099CC"
   d="M176,82c0,5.521-4.478,10-10,10c-5.5229,0-10-4.478-10-10c0-5.5229,4.4771-10,10-10  C171.522,72,176,76.4771,176,82" />&#10;<path
   id="path18"
   fill="#0099CC"
   d="M155,82c0,5.521-4.478,10-10,10c-5.5229,0-10-4.478-10-10c0-5.5229,4.4771-10,10-10  C150.522,72,155,76.4771,155,82" />&#10;<path
   id="path19"
   fill="#0099CC"
   d="M134,82c0,5.521-4.478,10-10,10c-5.5229,0-10-4.478-10-10c0-5.5229,4.4771-10,10-10  C129.522,72,134,76.4771,134,82" />&#10;<path
   id="path20"
   fill="#0099CC"
   d="M197,82c0,5.521-4.478,10-10,10c-5.5229,0-10-4.478-10-10c0-5.5229,4.4771-10,10-10  C192.522,72,197,76.4771,197,82" />&#10;<path
   id="path21"
   fill="#003399"
   d="M20,106c0,5.521-4.478,10-10,10c-5.5229,0-10-4.478-10-10c0-5.5229,4.4771-10,10-10  C15.522,96,20,100.4771,20,106" />&#10;<rect
   id="rect21"
   x="29.5"
   y="96"
   fill="#003399"
   width="93"
   height="20" />&#10;<path
   id="path22"
   fill="#003399"
   d="M41,106c0,5.522-4.478,10-10,10s-10-4.478-10-10s4.478-10,10-10S41,100.478,41,106" />&#10;<path
   id="path23"
   fill="#003399"
   d="M176,106c0,5.521-4.478,10-10,10c-5.5229,0-10-4.478-10-10c0-5.5229,4.4771-10,10-10  C171.522,96,176,100.4771,176,106" />&#10;<path
   id="path24"
   fill="#003399"
   d="M155,106c0,5.521-4.478,10-10,10c-5.5229,0-10-4.478-10-10c0-5.5229,4.4771-10,10-10  C150.522,96,155,100.4771,155,106" />&#10;<path
   id="path25"
   fill="#003399"
   d="M134,106c0,5.521-4.478,10-10,10c-5.5229,0-10-4.478-10-10c0-5.5229,4.4771-10,10-10  C129.522,96,134,100.4771,134,106" />&#10;<path
   id="path26"
   fill="#003399"
   d="M197,106c0,5.521-4.478,10-10,10c-5.5229,0-10-4.478-10-10c0-5.5229,4.4771-10,10-10  C192.522,96,197,100.4771,197,106" />&#10;<path
   id="path27"
   fill="#0099CC"
   d="M20,130c0,5.5205-4.478,10-10,10c-5.5229,0-10-4.4795-10-10c0-5.5225,4.4771-10,10-10  C15.522,120,20,124.4775,20,130" />&#10;<rect
   id="rect27"
   x="29.5"
   y="120"
   fill="#0099CC"
   width="93"
   height="20" />&#10;<path
   id="path28"
   fill="#0099CC"
   d="M41,130c0,5.5225-4.478,10-10,10s-10-4.4775-10-10s4.478-10,10-10S41,124.4775,41,130" />&#10;<path
   id="path29"
   fill="#0099CC"
   d="M176,130c0,5.5205-4.478,10-10,10c-5.5229,0-10-4.4795-10-10c0-5.5225,4.4771-10,10-10  C171.522,120,176,124.4775,176,130" />&#10;<path
   id="path30"
   fill="#0099CC"
   d="M155,130c0,5.5205-4.478,10-10,10c-5.5229,0-10-4.4795-10-10c0-5.5225,4.4771-10,10-10  C150.522,120,155,124.4775,155,130" />&#10;<path
   id="path31"
   fill="#0099CC"
   d="M134,130c0,5.5205-4.478,10-10,10c-5.5229,0-10-4.4795-10-10c0-5.5225,4.4771-10,10-10  C129.522,120,134,124.4775,134,130" />&#10;<path
   id="path32"
   fill="#0099CC"
   d="M197,130c0,5.5205-4.478,10-10,10c-5.5229,0-10-4.4795-10-10c0-5.5225,4.4771-10,10-10  C192.522,120,197,124.4775,197,130" />&#10;<path
   id="path33"
   fill="#0099CC"
   d="M20,154c0,5.5205-4.478,10-10,10c-5.5229,0-10-4.4795-10-10c0-5.5225,4.4771-10,10-10  C15.522,144,20,148.4775,20,154" />&#10;<rect
   id="rect33"
   x="29.5"
   y="144"
   fill="#0099CC"
   width="93"
   height="20" />&#10;<path
   id="path34"
   fill="#0099CC"
   d="M41,154c0,5.5225-4.478,10-10,10s-10-4.4775-10-10s4.478-10,10-10S41,148.4775,41,154" />&#10;<path
   id="path35"
   fill="#0099CC"
   d="M176,154c0,5.5205-4.478,10-10,10c-5.5229,0-10-4.4795-10-10c0-5.5225,4.4771-10,10-10  C171.522,144,176,148.4775,176,154" />&#10;<path
   id="path36"
   fill="#0099CC"
   d="M155,154c0,5.5205-4.478,10-10,10c-5.5229,0-10-4.4795-10-10c0-5.5225,4.4771-10,10-10  C150.522,144,155,148.4775,155,154" />&#10;<path
   id="path37"
   fill="#0099CC"
   d="M134,154c0,5.5205-4.478,10-10,10c-5.5229,0-10-4.4795-10-10c0-5.5225,4.4771-10,10-10  C129.522,144,134,148.4775,134,154" />&#10;<path
   id="path38"
   fill="#0099CC"
   d="M197,154c0,5.5205-4.478,10-10,10c-5.5229,0-10-4.4795-10-10c0-5.5225,4.4771-10,10-10  C192.522,144,197,148.4775,197,154" />&#10;<path
   id="path39"
   fill="#0099CC"
   d="M20,178c0,5.5205-4.478,10-10,10c-5.5229,0-10-4.4795-10-10c0-5.5225,4.4771-10,10-10  C15.522,168,20,172.4775,20,178" />&#10;<rect
   id="rect39"
   x="29.5"
   y="168"
   fill="#0099CC"
   width="93"
   height="20" />&#10;<path
   id="path40"
   fill="#0099CC"
   d="M41,178c0,5.5225-4.478,10-10,10s-10-4.4775-10-10s4.478-10,10-10S41,172.4775,41,178" />&#10;<path
   id="path41"
   fill="#0099CC"
   d="M176,178c0,5.5205-4.478,10-10,10c-5.5229,0-10-4.4795-10-10c0-5.5225,4.4771-10,10-10  C171.522,168,176,172.4775,176,178" />&#10;<path
   id="path42"
   fill="#0099CC"
   d="M155,178c0,5.5205-4.478,10-10,10c-5.5229,0-10-4.4795-10-10c0-5.5225,4.4771-10,10-10  C150.522,168,155,172.4775,155,178" />&#10;<path
   id="path43"
   fill="#0099CC"
   d="M134,178c0,5.5205-4.478,10-10,10c-5.5229,0-10-4.4795-10-10c0-5.5225,4.4771-10,10-10  C129.522,168,134,172.4775,134,178" />&#10;<path
   id="path44"
   fill="#0099CC"
   d="M197,178c0,5.5205-4.478,10-10,10c-5.5229,0-10-4.4795-10-10c0-5.5225,4.4771-10,10-10  C192.522,168,197,172.4775,197,178" />&#10;<g
   id="g47">&#10;	<path
   id="path45"
   fill="#003399"
   d="M238.7798,188V0h60.7764v127.7168h51.064V188H238.7798z" />&#10;	<path
   id="path46"
   fill="#003399"
   d="M374.0059,0h62.6123l23.0898,98.7109h1.5537c0.5918-4.1528,1.1836-8.3501,1.7764-12.5879   c0.5908-4.2383,1.4063-8.3501,2.4424-12.3389L484.3535,0h61.9434l27.5322,188h-58.8369L507,85.063h-1.333   c-0.2959,3.1592-0.8145,6.3159-1.5537,9.4712c-0.7402,3.1567-1.5557,6.231-2.4424,9.2227L477.4697,188h-35.5234l-21.7578-79.5088   c-1.0371-3.8223-1.8525-7.6841-2.4434-11.5903c-0.5928-3.9038-1.0361-7.8511-1.3301-11.8379h-2   c-0.2969,3.8208-0.5547,7.603-0.7764,11.3408c-0.2236,3.7393-0.4805,7.5181-0.7754,11.3403L405.7559,188h-58.8369L374.0059,0z" />&#10;	<path
   id="path47"
   fill="#003399"
   d="M558.8682,94.4839c0-14.3379,2.3662-27.3062,7.1016-38.9048   c4.7363-11.5991,11.1563-21.5049,19.2656-29.7222c8.1084-8.2168,17.6143-14.5801,28.5205-19.0908   C624.6621,2.2559,636.2852,0,648.625,0s23.9629,2.2559,34.8691,6.7661c10.9063,4.5117,20.4111,10.875,28.5195,19.0908   c8.1094,8.2163,14.5293,18.124,19.2656,29.7222c4.7354,11.5986,7.1035,24.5659,7.1035,38.9048   c0,14.6592-2.3672,27.7495-7.1035,39.2671c-4.7354,11.5176-11.1563,21.3066-19.2656,29.3594   c-8.1074,8.0566-17.6123,14.2168-28.5195,18.4854c-10.9063,4.2695-22.5293,6.4033-34.8691,6.4033s-23.9629-2.1348-34.8691-6.4033   c-10.9063-4.2695-20.4131-10.4297-28.5205-18.4854c-8.1084-8.0547-14.5283-17.8418-19.2656-29.3594   C561.2344,122.2314,558.8682,109.1431,558.8682,94.4839z M618.2676,95.438c0,5.3218,0.7178,10.1201,2.1533,14.3931   c1.4355,4.272,3.5176,7.9419,6.2432,11.0059c2.7256,3.0645,5.957,5.4434,9.6875,7.1367c3.7305,1.6924,7.8223,2.5391,12.2725,2.5391   c4.5918,0,8.7188-0.8467,12.3789-2.5391s6.8545-4.0723,9.5801-7.1367c2.7256-3.0649,4.8086-6.7339,6.2451-11.0059   c1.4346-4.2729,2.1533-9.0703,2.1533-14.3931c0-4.8369-0.7197-9.394-2.1533-13.668c-1.4375-4.272-3.4453-8.063-6.0283-11.3691   c-2.584-3.3047-5.7422-5.8857-9.4736-7.7397c-3.7305-1.854-7.9658-2.7832-12.7021-2.7832c-4.7373,0-8.9727,0.9282-12.7041,2.7832   c-3.7305,1.854-6.8896,4.4351-9.4717,7.7397c-2.585,3.3062-4.5947,7.0972-6.0283,11.3691   C618.9844,86.0439,618.2676,90.6011,618.2676,95.438z" />&#10;</g>&#10;<g
   id="text47"
   enable-background="new    ">&#10;	<path
   fill="#FFFFFF"
   d="M59.8208,232.1191v-22.625h9.7813v15.375h8.2153v7.25H59.8208z"
   id="path48" />&#10;	<path
   fill="#FFFFFF"
   d="M80.2148,211.2764c0-1.1602,0.4824-2.0703,1.4482-2.7305c0.9653-0.6592,2.1753-0.9893,3.6299-0.9893   c1.4541,0,2.6641,0.3301,3.6299,0.9893c0.9653,0.6602,1.4482,1.5703,1.4482,2.7305c0,0.6602-0.1431,1.2246-0.4292,1.6943   s-0.6616,0.8555-1.1265,1.1553s-1.0015,0.5254-1.6094,0.6748s-1.2456,0.2246-1.9131,0.2246c-0.668,0-1.3057-0.0752-1.9136-0.2246   s-1.144-0.375-1.6089-0.6748s-0.8403-0.6855-1.1265-1.1553S80.2148,211.9365,80.2148,211.2764z M89.9023,216.1816v15.9375h-9.2188   v-15.9375H89.9023z"
   id="path49" />&#10;	<path
   fill="#FFFFFF"
   d="M101.644,215.8379c1.2148,0,2.2866,0.2275,3.2153,0.6826c0.9287,0.4541,1.7031,1.1016,2.3223,1.9414h0.25   l-0.25-2.2803h8.9063v15.0127c0,1.5605-0.3511,2.8926-1.0527,3.9932c-0.7021,1.1006-1.6357,2.001-2.8018,2.7021   s-2.5166,1.2168-4.0508,1.5469c-1.5347,0.3301-3.123,0.4951-4.7646,0.4951c-1.499,0-2.8853-0.1104-4.1582-0.3301   s-2.5996-0.5303-3.9795-0.9307l-0.9287-0.2695l2.0356-5.3711c0.8809,0.6445,1.9341,1.1328,3.1606,1.4658   c1.2261,0.3311,2.3867,0.498,3.4819,0.498c1.2617,0,2.25-0.3311,2.9644-0.9932c0.7139-0.6641,1.1309-1.5059,1.25-2.5273   l0.1782-1.6191h-0.2495c-0.2383,0.4395-0.5596,0.8242-0.9639,1.1543c-0.4048,0.3301-0.8569,0.6055-1.3569,0.8262   c-0.5,0.2188-1.0293,0.3838-1.5889,0.4941c-0.5596,0.1094-1.1128,0.165-1.6602,0.165c-1.2852,0-2.4336-0.251-3.4453-0.75   c-1.0117-0.5-1.8682-1.1455-2.5703-1.9365c-0.7021-0.7891-1.2319-1.6855-1.5889-2.6855c-0.3574-1-0.5356-1.9902-0.5356-2.9707   c0-1,0.1782-1.9902,0.5356-2.9707s0.8872-1.8711,1.5898-2.6719c0.7026-0.7998,1.5601-1.4453,2.5723-1.9355   S100.334,215.8379,101.644,215.8379z M105.1685,226.4316c0.7871,0,1.3711-0.2217,1.7529-0.665s0.5728-0.9668,0.5728-1.5703   c0-0.6055-0.209-1.1436-0.6265-1.6172c-0.4175-0.4727-1.0078-0.71-1.7705-0.71c-0.7397,0-1.3481,0.2217-1.8252,0.665   s-0.7153,0.9863-0.7153,1.6309s0.2324,1.1836,0.6978,1.6172C103.7192,226.2158,104.3574,226.4316,105.1685,226.4316z"
   id="path50" />&#10;	<path
   fill="#FFFFFF"
   d="M119.1816,224.2412c0-1,0.1787-2,0.5366-3.001s0.8887-1.9014,1.5928-2.7012s1.5688-1.4502,2.5952-1.9502   s2.2075-0.751,3.5439-0.751c1.145,0,2.1831,0.1777,3.1138,0.5322s1.7417,0.9219,2.4341,1.7012h0.2148l-0.2856-1.8896h9.0356   v15.9375h-9.0356l0.2856-2.0859h-0.2266c-0.835,0.7402-1.6812,1.335-2.5396,1.7861c-0.8584,0.4492-1.9429,0.6748-3.2539,0.6748   c-1.2881,0-2.4326-0.251-3.4336-0.75c-1.0015-0.5-1.8418-1.1455-2.5215-1.9365c-0.6797-0.7891-1.1919-1.6748-1.5376-2.6553   S119.1816,225.2021,119.1816,224.2412z M128.3379,224.0752c0,0.6445,0.1909,1.1982,0.5732,1.6621   c0.3823,0.4629,0.9917,0.6943,1.8286,0.6943c0.8838,0,1.5171-0.2471,1.8994-0.7402s0.5737-1.0518,0.5737-1.6768   s-0.2271-1.1387-0.6812-1.541s-1.0518-0.6045-1.792-0.6045c-0.7412,0-1.3267,0.2217-1.7568,0.665   S128.3379,223.4912,128.3379,224.0752z"
   id="path51" />&#10;	<path
   fill="#FFFFFF"
   d="M164.0864,209.4941h10.0728l3.7148,11.8799h0.25c0.0952-0.5,0.1904-1.0049,0.2856-1.5146   s0.2261-1.0049,0.3931-1.4854l3.0361-8.8799h9.9653l4.4292,22.625h-9.4653l-1.2861-12.4063h-0.2144   c-0.0479,0.3809-0.1309,0.7607-0.25,1.1416s-0.25,0.751-0.3926,1.1113l-3.8936,10.1533h-5.7148l-3.5005-9.583   c-0.167-0.46-0.2979-0.9258-0.3931-1.3965s-0.1665-0.9463-0.2144-1.4268h-0.3213c-0.0479,0.4609-0.0894,0.917-0.125,1.3662   c-0.0361,0.4512-0.0776,0.9063-0.125,1.3672l-1.1431,9.6729h-9.4653L164.0864,209.4941z"
   id="path52" />&#10;	<path
   fill="#FFFFFF"
   d="M198.4194,224.2412c0-1,0.1787-2,0.5366-3.001s0.8887-1.9014,1.5928-2.7012s1.5688-1.4502,2.5952-1.9502   s2.2075-0.751,3.5439-0.751c1.145,0,2.1831,0.1777,3.1138,0.5322s1.7417,0.9219,2.4341,1.7012h0.2148l-0.2856-1.8896h9.0356   v15.9375h-9.0356l0.2856-2.0859h-0.2266c-0.835,0.7402-1.6812,1.335-2.5396,1.7861c-0.8584,0.4492-1.9429,0.6748-3.2539,0.6748   c-1.2881,0-2.4326-0.251-3.4336-0.75c-1.0015-0.5-1.8418-1.1455-2.5215-1.9365c-0.6797-0.7891-1.1919-1.6748-1.5376-2.6553   S198.4194,225.2021,198.4194,224.2412z M207.5757,224.0752c0,0.6445,0.1909,1.1982,0.5732,1.6621   c0.3823,0.4629,0.9917,0.6943,1.8286,0.6943c0.8838,0,1.5171-0.2471,1.8994-0.7402s0.5737-1.0518,0.5737-1.6768   s-0.2271-1.1387-0.6812-1.541s-1.0518-0.6045-1.792-0.6045c-0.7412,0-1.3267,0.2217-1.7568,0.665   S207.5757,223.4912,207.5757,224.0752z"
   id="path53" />&#10;	<path
   fill="#FFFFFF"
   d="M224.7856,216.1816h9l-0.3706,2.5713h0.2144c0.4526-0.4404,0.8872-0.8418,1.3042-1.2021   s0.8574-0.666,1.3223-0.917c0.4648-0.25,0.9771-0.4453,1.5371-0.5859c0.5596-0.1396,1.209-0.21,1.9478-0.21   c1.1914,0,2.1978,0.1748,3.02,0.5244c0.8218,0.3496,1.501,0.8203,2.0371,1.4102s0.9233,1.2734,1.1616,2.0527   c0.2383,0.7803,0.3574,1.6094,0.3574,2.4893v9.8047h-9.2188v-7.7549c0-0.2383-0.0063-0.4883-0.0181-0.748   s-0.0713-0.498-0.1777-0.7188c-0.1064-0.2188-0.2607-0.4043-0.4619-0.5537c-0.2017-0.1494-0.5039-0.2246-0.9067-0.2246   c-0.3799,0-0.6704,0.0654-0.8716,0.1943c-0.2017,0.1309-0.3496,0.2998-0.4443,0.5098c-0.0947,0.209-0.1543,0.4395-0.1777,0.6885   c-0.0239,0.249-0.0356,0.4941-0.0356,0.7334v7.874h-9.2188V216.1816z"
   id="path54" />&#10;	<path
   fill="#FFFFFF"
   d="M249.2324,224.2412c0-1,0.1787-2,0.5366-3.001s0.8887-1.9014,1.5928-2.7012s1.5688-1.4502,2.5952-1.9502   s2.2075-0.751,3.5439-0.751c1.145,0,2.1831,0.1777,3.1138,0.5322s1.7417,0.9219,2.4341,1.7012h0.2148l-0.2856-1.8896h9.0356   v15.9375h-9.0356l0.2856-2.0859h-0.2266c-0.835,0.7402-1.6812,1.335-2.5396,1.7861c-0.8584,0.4492-1.9429,0.6748-3.2539,0.6748   c-1.2881,0-2.4326-0.251-3.4336-0.75c-1.0015-0.5-1.8418-1.1455-2.5215-1.9365c-0.6797-0.7891-1.1919-1.6748-1.5376-2.6553   S249.2324,225.2021,249.2324,224.2412z M258.3887,224.0752c0,0.6445,0.1909,1.1982,0.5732,1.6621   c0.3823,0.4629,0.9917,0.6943,1.8286,0.6943c0.8838,0,1.5171-0.2471,1.8994-0.7402s0.5737-1.0518,0.5737-1.6768   s-0.2271-1.1387-0.6812-1.541s-1.0518-0.6045-1.792-0.6045c-0.7412,0-1.3267,0.2217-1.7568,0.665   S258.3887,223.4912,258.3887,224.0752z"
   id="path55" />&#10;	<path
   fill="#FFFFFF"
   d="M283.186,215.8379c1.2148,0,2.2866,0.2275,3.2153,0.6826c0.9287,0.4541,1.7031,1.1016,2.3223,1.9414h0.25   l-0.25-2.2803h8.9063v15.0127c0,1.5605-0.3511,2.8926-1.0527,3.9932c-0.7021,1.1006-1.6357,2.001-2.8018,2.7021   s-2.5166,1.2168-4.0508,1.5469c-1.5347,0.3301-3.123,0.4951-4.7646,0.4951c-1.499,0-2.8853-0.1104-4.1582-0.3301   s-2.5996-0.5303-3.9795-0.9307l-0.9287-0.2695l2.0356-5.3711c0.8809,0.6445,1.9341,1.1328,3.1606,1.4658   c1.2261,0.3311,2.3867,0.498,3.4819,0.498c1.2617,0,2.25-0.3311,2.9644-0.9932c0.7139-0.6641,1.1309-1.5059,1.25-2.5273   l0.1782-1.6191h-0.2495c-0.2383,0.4395-0.5596,0.8242-0.9639,1.1543c-0.4048,0.3301-0.8569,0.6055-1.3569,0.8262   c-0.5,0.2188-1.0293,0.3838-1.5889,0.4941c-0.5596,0.1094-1.1128,0.165-1.6602,0.165c-1.2852,0-2.4336-0.251-3.4453-0.75   c-1.0117-0.5-1.8682-1.1455-2.5703-1.9365c-0.7021-0.7891-1.2319-1.6855-1.5889-2.6855c-0.3574-1-0.5356-1.9902-0.5356-2.9707   c0-1,0.1782-1.9902,0.5356-2.9707s0.8872-1.8711,1.5898-2.6719c0.7026-0.7998,1.5601-1.4453,2.5723-1.9355   S281.876,215.8379,283.186,215.8379z M286.7104,226.4316c0.7871,0,1.3711-0.2217,1.7529-0.665s0.5728-0.9668,0.5728-1.5703   c0-0.6055-0.209-1.1436-0.6265-1.6172c-0.4175-0.4727-1.0078-0.71-1.7705-0.71c-0.7397,0-1.3481,0.2217-1.8252,0.665   s-0.7153,0.9863-0.7153,1.6309s0.2324,1.1836,0.6978,1.6172C285.2612,226.2158,285.8994,226.4316,286.7104,226.4316z"
   id="path56" />&#10;	<path
   fill="#FFFFFF"
   d="M300.8179,224.4209c0-1.3203,0.2856-2.5098,0.8569-3.5703s1.3447-1.9609,2.3208-2.7012   s2.1309-1.3105,3.4634-1.7109c1.334-0.4004,2.75-0.6006,4.25-0.6006c1.6182,0,3.1357,0.2002,4.5527,0.5996   c1.416,0.3994,2.6475,0.9854,3.6953,1.7549c1.0469,0.7695,1.874,1.7031,2.4814,2.8027c0.6064,1.0996,0.9111,2.3496,0.9111,3.748   c0,0.1201,0,0.2402,0,0.3604s-0.0117,0.2393-0.0313,0.3594h-13.4063c0,0.3223,0.0234,0.6494,0.0703,0.9824   c0.0488,0.333,0.1494,0.6299,0.3047,0.8916c0.1543,0.2617,0.375,0.4727,0.6602,0.6348c0.2871,0.1602,0.668,0.2412,1.1445,0.2412   s0.8809-0.127,1.2148-0.3818c0.334-0.2539,0.5488-0.5752,0.6436-0.9619h8.9717c-0.3105,0.9629-0.834,1.7949-1.5723,2.4971   c-0.7383,0.7012-1.6006,1.2881-2.5879,1.7598c-0.9883,0.4707-2.0479,0.8164-3.1787,1.0371s-2.2432,0.3311-3.3389,0.3311   c-1.5,0-2.9336-0.165-4.3027-0.4951c-1.3687-0.3301-2.5825-0.8252-3.6421-1.4854s-1.9043-1.4951-2.5352-2.5068   C301.1333,226.9971,300.8179,225.8018,300.8179,224.4209z M309.9121,222.1504h4.3438c0-0.5381-0.21-1.0166-0.6289-1.4346   s-0.9629-0.6279-1.6328-0.6279c-0.6953,0-1.2148,0.2041-1.5625,0.6123C310.085,221.1094,309.9121,221.5928,309.9121,222.1504z"
   id="path57" />&#10;	<path
   fill="#FFFFFF"
   d="M326.2744,216.1816h9.2188l-0.2139,2.1563h0.2139c0.3809-0.4814,0.7676-0.8838,1.1611-1.2041   c0.3926-0.3223,0.8203-0.5781,1.2852-0.7686s0.9707-0.3271,1.5176-0.4072c0.5488-0.0801,1.1553-0.1201,1.8223-0.1201h0.6426v7.8564   c-0.4766-0.2363-0.916-0.4375-1.3213-0.6055c-0.4053-0.167-0.9053-0.251-1.5-0.251c-1.1904,0-2.0898,0.2744-2.6963,0.8232   c-0.6074,0.5488-0.9111,1.332-0.9111,2.3506v6.1074h-9.2188V216.1816z"
   id="path58" />&#10;	<path
   fill="#FFFFFF"
   d="M358.3047,220.8818c0-1.7793,0.3926-3.3896,1.1777-4.8301c0.7861-1.4404,1.8516-2.6699,3.1973-3.6914   c1.3438-1.0195,2.9219-1.8096,4.7305-2.3691c1.8096-0.5605,3.7383-0.8408,5.7852-0.8408s3.9746,0.2803,5.7852,0.8408   c1.8086,0.5596,3.3857,1.3496,4.7305,2.3691c1.3457,1.0215,2.4102,2.251,3.1963,3.6914s1.1787,3.0508,1.1787,4.8301   c0,1.8203-0.3926,3.4463-1.1787,4.877c-0.7861,1.4297-1.8506,2.6445-3.1963,3.6445c-1.3447,1-2.9219,1.7656-4.7305,2.2959   c-1.8105,0.5303-3.7383,0.7949-5.7852,0.7949s-3.9756-0.2646-5.7852-0.7949c-1.8086-0.5303-3.3867-1.2959-4.7305-2.2959   c-1.3457-1-2.4111-2.2148-3.1973-3.6445C358.6973,224.3281,358.3047,222.7021,358.3047,220.8818z M368.1484,221.0088   c0,0.6621,0.1191,1.2578,0.3574,1.7891s0.585,0.9883,1.0391,1.3691c0.4531,0.3809,0.9902,0.6758,1.6104,0.8867   s1.2998,0.3154,2.04,0.3154c0.7637,0,1.4492-0.1045,2.0586-0.3154c0.6074-0.2109,1.1387-0.5059,1.5918-0.8867   s0.7998-0.8379,1.0391-1.3691c0.2383-0.5313,0.3574-1.127,0.3574-1.7891c0-0.6016-0.1191-1.168-0.3574-1.6992   c-0.2393-0.5313-0.5732-1.002-1.0029-1.4131s-0.9541-0.7314-1.5752-0.9619c-0.6201-0.2305-1.3242-0.3467-2.1113-0.3467   s-1.4922,0.1162-2.1113,0.3467c-0.6211,0.2305-1.1465,0.5508-1.5762,0.9619s-0.7637,0.8818-1.002,1.4131   S368.1484,220.4072,368.1484,221.0088z"
   id="path59" />&#10;	<path
   fill="#FFFFFF"
   d="M391.1162,216.1816h9l-0.3701,2.5713h0.2139c0.4521-0.4404,0.8877-0.8418,1.3037-1.2021   c0.418-0.3604,0.8574-0.666,1.3223-0.917c0.4648-0.25,0.9775-0.4453,1.5371-0.5859c0.5605-0.1396,1.209-0.21,1.9482-0.21   c1.1914,0,2.1982,0.1748,3.0205,0.5244c0.8213,0.3496,1.5,0.8203,2.0371,1.4102c0.5352,0.5898,0.9229,1.2734,1.1611,2.0527   c0.2383,0.7803,0.3574,1.6094,0.3574,2.4893v9.8047h-9.2188v-7.7549c0-0.2383-0.0068-0.4883-0.0186-0.748   s-0.0703-0.498-0.1777-0.7188c-0.1055-0.2188-0.2598-0.4043-0.4609-0.5537c-0.2021-0.1494-0.5039-0.2246-0.9072-0.2246   c-0.3799,0-0.6709,0.0654-0.8721,0.1943c-0.2012,0.1309-0.3496,0.2998-0.4434,0.5098c-0.0957,0.209-0.1543,0.4395-0.1777,0.6885   c-0.0244,0.249-0.0361,0.4941-0.0361,0.7334v7.874h-9.2188V216.1816z"
   id="path60" />&#10;	<path
   fill="#FFFFFF"
   d="M416.4697,232.1191v-24.3438h9.2188v24.3438H416.4697z"
   id="path61" />&#10;	<path
   fill="#FFFFFF"
   d="M429.7305,211.2764c0-1.1602,0.4824-2.0703,1.4482-2.7305c0.9658-0.6592,2.1748-0.9893,3.6299-0.9893   c1.4541,0,2.6641,0.3301,3.6299,0.9893c0.9658,0.6602,1.4482,1.5703,1.4482,2.7305c0,0.6602-0.1426,1.2246-0.4297,1.6943   c-0.2852,0.4697-0.6611,0.8555-1.126,1.1553s-1.001,0.5254-1.6094,0.6748s-1.2451,0.2246-1.9131,0.2246   s-1.3057-0.0752-1.9141-0.2246c-0.6074-0.1494-1.1436-0.375-1.6084-0.6748s-0.8408-0.6855-1.126-1.1553   C429.873,212.501,429.7305,211.9365,429.7305,211.2764z M439.418,216.1816v15.9375h-9.2188v-15.9375H439.418z"
   id="path62" />&#10;	<path
   fill="#FFFFFF"
   d="M443.5723,216.1816h9l-0.3711,2.5713h0.2148c0.4531-0.4404,0.8867-0.8418,1.3047-1.2021   c0.416-0.3604,0.8574-0.666,1.3223-0.917c0.4648-0.25,0.9766-0.4453,1.5371-0.5859c0.5586-0.1396,1.209-0.21,1.9473-0.21   c1.1914,0,2.1973,0.1748,3.0195,0.5244s1.502,0.8203,2.0371,1.4102c0.5371,0.5898,0.9238,1.2734,1.1621,2.0527   c0.2383,0.7803,0.3574,1.6094,0.3574,2.4893v9.8047h-9.2188v-7.7549c0-0.2383-0.0059-0.4883-0.0176-0.748   s-0.0723-0.498-0.1777-0.7188c-0.1074-0.2188-0.2617-0.4043-0.4629-0.5537s-0.5039-0.2246-0.9063-0.2246   c-0.3799,0-0.6699,0.0654-0.8711,0.1943c-0.2021,0.1309-0.3496,0.2998-0.4453,0.5098c-0.0938,0.209-0.1543,0.4395-0.1777,0.6885   s-0.0352,0.4941-0.0352,0.7334v7.874h-9.2188V216.1816z"
   id="path63" />&#10;	<path
   fill="#FFFFFF"
   d="M468.1123,224.4209c0-1.3203,0.2861-2.5098,0.8564-3.5703c0.5723-1.0605,1.3457-1.9609,2.3213-2.7012   s2.1309-1.3105,3.4639-1.7109s2.749-0.6006,4.249-0.6006c1.6182,0,3.1357,0.2002,4.5527,0.5996   c1.416,0.3994,2.6475,0.9854,3.6953,1.7549s1.874,1.7031,2.4814,2.8027s0.9111,2.3496,0.9111,3.748c0,0.1201,0,0.2402,0,0.3604   s-0.0107,0.2393-0.0313,0.3594h-13.4063c0,0.3223,0.0234,0.6494,0.0713,0.9824s0.1484,0.6299,0.3037,0.8916   s0.375,0.4727,0.6611,0.6348c0.2861,0.1602,0.668,0.2412,1.1445,0.2412s0.8809-0.127,1.2148-0.3818   c0.334-0.2539,0.5479-0.5752,0.6426-0.9619h8.9717c-0.3096,0.9629-0.833,1.7949-1.5713,2.4971   c-0.7383,0.7012-1.6016,1.2881-2.5889,1.7598c-0.9883,0.4707-2.0479,0.8164-3.1787,1.0371s-2.2432,0.3311-3.3379,0.3311   c-1.5,0-2.9336-0.165-4.3027-0.4951s-2.583-0.8252-3.6426-1.4854s-1.9043-1.4951-2.5352-2.5068   C468.4277,226.9971,468.1123,225.8018,468.1123,224.4209z M477.2061,222.1504h4.3438c0-0.5381-0.21-1.0166-0.6279-1.4346   c-0.4199-0.418-0.9639-0.6279-1.6338-0.6279c-0.6943,0-1.2148,0.2041-1.5615,0.6123   C477.3789,221.1094,477.2061,221.5928,477.2061,222.1504z"
   id="path64" />&#10;	<path
   fill="#FFFFFF"
   d="M508.9541,227.1816v-6.5938h12.75v6.5938H508.9541z"
   id="path65" />&#10;	<path
   fill="#FFFFFF"
   d="M538.6309,232.1191l9.3594-22.625h10.8223l9.6084,22.625h-10.3584l-0.8926-2.8125h-7.3945l-0.7852,2.8125   H538.6309z M555.4551,223.9316c-0.8809-3.1025-1.3809-4.9043-1.5-5.4053l-0.2861-1.501h-0.3564l-1.7871,6.9063H555.4551z"
   id="path66" />&#10;	<path
   fill="#FFFFFF"
   d="M569.4531,224.3018c0-1.001,0.1602-2.002,0.4814-3.002s0.8076-1.9053,1.4619-2.7158   c0.6533-0.8096,1.4736-1.4697,2.46-1.9805s2.1455-0.7656,3.4775-0.7656c1.0684,0,2.127,0.2295,3.1729,0.6904   c1.0459,0.459,1.8896,1.0596,2.5322,1.7998h0.3203c-0.0449-0.3799-0.0908-0.7705-0.1357-1.1699s-0.0908-0.7744-0.1357-1.126   c-0.0449-0.3496-0.0781-0.6563-0.1016-0.916c-0.0215-0.2617-0.0332-0.4414-0.0332-0.542v-6.7988h9.2188v24.3438h-8.6465   l0.1777-2.3564h-0.2139c-0.7861,0.8408-1.7021,1.5059-2.751,1.9961c-1.0469,0.4902-2.1895,0.7354-3.4277,0.7354   c-1.2861,0-2.417-0.251-3.3926-0.75c-0.9766-0.5-1.7988-1.1406-2.4648-1.9209c-0.667-0.7803-1.167-1.6553-1.5-2.626   C569.6191,226.2275,569.4531,225.2617,569.4531,224.3018z M578.5156,224.1514c0,0.5996,0.2021,1.1309,0.6074,1.5898   c0.4043,0.4609,0.9883,0.6904,1.75,0.6904c0.3574,0,0.6836-0.0693,0.9824-0.21c0.2969-0.1396,0.5469-0.3242,0.75-0.5547   c0.2012-0.2305,0.3623-0.4854,0.4814-0.7656s0.1787-0.5508,0.1787-0.8105c0-0.5596-0.2266-1.0645-0.6787-1.5156   c-0.4521-0.4492-1.0244-0.6748-1.7139-0.6748c-0.7617,0-1.3457,0.2305-1.75,0.6904   C578.7178,223.0508,578.5156,223.5713,578.5156,224.1514z"
   id="path67" />&#10;	<path
   fill="#FFFFFF"
   d="M595.1641,224.3018c0-1.001,0.1602-2.002,0.4814-3.002s0.8076-1.9053,1.4619-2.7158   c0.6533-0.8096,1.4736-1.4697,2.46-1.9805s2.1455-0.7656,3.4775-0.7656c1.0684,0,2.127,0.2295,3.1729,0.6904   c1.0459,0.459,1.8896,1.0596,2.5322,1.7998h0.3203c-0.0449-0.3799-0.0908-0.7705-0.1357-1.1699s-0.0908-0.7744-0.1357-1.126   c-0.0449-0.3496-0.0781-0.6563-0.1016-0.916c-0.0215-0.2617-0.0332-0.4414-0.0332-0.542v-6.7988h9.2188v24.3438h-8.6465   l0.1777-2.3564h-0.2139c-0.7861,0.8408-1.7021,1.5059-2.751,1.9961c-1.0469,0.4902-2.1895,0.7354-3.4277,0.7354   c-1.2861,0-2.417-0.251-3.3926-0.75c-0.9766-0.5-1.7988-1.1406-2.4648-1.9209c-0.667-0.7803-1.167-1.6553-1.5-2.626   C595.3301,226.2275,595.1641,225.2617,595.1641,224.3018z M604.2266,224.1514c0,0.5996,0.2021,1.1309,0.6074,1.5898   c0.4043,0.4609,0.9883,0.6904,1.75,0.6904c0.3574,0,0.6836-0.0693,0.9824-0.21c0.2969-0.1396,0.5469-0.3242,0.75-0.5547   c0.2012-0.2305,0.3623-0.4854,0.4814-0.7656s0.1787-0.5508,0.1787-0.8105c0-0.5596-0.2266-1.0645-0.6787-1.5156   c-0.4521-0.4492-1.0244-0.6748-1.7139-0.6748c-0.7617,0-1.3457,0.2305-1.75,0.6904   C604.4287,223.0508,604.2266,223.5713,604.2266,224.1514z"
   id="path68" />&#10;	<path
   fill="#FFFFFF"
   d="M620.9053,224.3613c0-1.4004,0.3096-2.6309,0.9287-3.6914s1.4512-1.9502,2.5-2.6709   c1.0469-0.7207,2.2676-1.2598,3.6602-1.6211c1.3926-0.3594,2.8633-0.54,4.4111-0.54s3.0176,0.1807,4.4111,0.54   c1.3926,0.3613,2.6123,0.9004,3.6602,1.6211s1.8809,1.6104,2.5,2.6709s0.9287,2.291,0.9287,3.6914   c0,1.3203-0.3213,2.4854-0.9639,3.4961c-0.6436,1.0107-1.501,1.8604-2.5723,2.5518c-1.0713,0.6895-2.2969,1.21-3.6777,1.5605   c-1.3809,0.3496-2.8105,0.5244-4.2861,0.5244c-1.4766,0-2.9053-0.1748-4.2861-0.5244c-1.3809-0.3506-2.6074-0.8711-3.6777-1.5605   c-1.0723-0.6914-1.9297-1.541-2.5723-2.5518S620.9053,225.6816,620.9053,224.3613z M629.8428,224.2412   c0,0.6406,0.249,1.165,0.7471,1.5752s1.1035,0.6152,1.8154,0.6152s1.3174-0.2051,1.8154-0.6152s0.7471-0.9346,0.7471-1.5752   s-0.2373-1.1904-0.7119-1.6504s-1.0918-0.6904-1.8506-0.6904s-1.376,0.2305-1.8506,0.6904S629.8428,223.6006,629.8428,224.2412z"
   id="path69" />&#10;	<path
   fill="#FFFFFF"
   d="M646.9316,216.1816h9l-0.3711,2.5713h0.2148c0.4531-0.4404,0.8867-0.8418,1.3047-1.2021   c0.416-0.3604,0.8574-0.666,1.3223-0.917c0.4648-0.25,0.9766-0.4453,1.5371-0.5859c0.5586-0.1396,1.209-0.21,1.9473-0.21   c1.1914,0,2.1973,0.1748,3.0195,0.5244s1.502,0.8203,2.0371,1.4102c0.5371,0.5898,0.9238,1.2734,1.1621,2.0527   c0.2383,0.7803,0.3574,1.6094,0.3574,2.4893v9.8047h-9.2188v-7.7549c0-0.2383-0.0059-0.4883-0.0176-0.748   s-0.0723-0.498-0.1777-0.7188c-0.1074-0.2188-0.2617-0.4043-0.4629-0.5537s-0.5039-0.2246-0.9063-0.2246   c-0.3799,0-0.6699,0.0654-0.8711,0.1943c-0.2021,0.1309-0.3496,0.2998-0.4453,0.5098c-0.0938,0.209-0.1543,0.4395-0.1777,0.6885   s-0.0352,0.4941-0.0352,0.7334v7.874h-9.2188V216.1816z"
   id="path70" />&#10;	<path
   fill="#FFFFFF"
   d="M670.5957,230.7197l2.3574-4.8086l0.5723,0.3008c0.6426,0.3398,1.3926,0.6699,2.25,0.9902   s1.6787,0.4795,2.4648,0.4795c0.3096,0,0.6133-0.0693,0.9102-0.21c0.2988-0.1396,0.4473-0.3594,0.4473-0.6602   c0-0.2188-0.0605-0.3887-0.1797-0.5088s-0.2744-0.21-0.4648-0.2705c-0.1914-0.0596-0.3945-0.1045-0.6094-0.1348   c-0.2148-0.0293-0.418-0.0547-0.6094-0.0742c-0.7656-0.0996-1.5059-0.2451-2.2227-0.4355   c-0.7168-0.1895-1.3496-0.4551-1.8984-0.7949c-0.5508-0.3398-0.9922-0.7695-1.3262-1.2891c-0.335-0.5195-0.502-1.1484-0.502-1.8887   c0-1,0.2676-1.8496,0.8047-2.5488s1.2344-1.2734,2.0928-1.7236s1.8115-0.7803,2.8613-0.9893   c1.0498-0.2109,2.0869-0.3154,3.1123-0.3154c1.2139,0,2.4766,0.1045,3.7852,0.3154c1.3105,0.209,2.501,0.5547,3.5723,1.0332   l-2.25,4.4092c-0.5957-0.3604-1.2617-0.6699-2-0.9307c-0.7383-0.2598-1.4883-0.3896-2.25-0.3896   c-0.2871,0-0.5781,0.0498-0.876,0.1504s-0.4463,0.29-0.4463,0.5703c0,0.4004,0.2207,0.6455,0.6602,0.7354   c0.4414,0.0898,0.9824,0.1855,1.625,0.2852c0.8105,0.1201,1.5781,0.2754,2.3047,0.4648c0.7256,0.1914,1.3564,0.4561,1.8926,0.7969   c0.5352,0.3398,0.9639,0.7803,1.2852,1.3203c0.3213,0.541,0.4824,1.2207,0.4824,2.041c0,1.041-0.2793,1.9316-0.8379,2.6719   c-0.5586,0.7412-1.2783,1.3467-2.1582,1.8164c-0.8789,0.4707-1.8652,0.8164-2.959,1.0361s-2.1641,0.3301-3.2109,0.3301   c-1.5,0-2.9766-0.1709-4.4287-0.5107C673.3945,231.6416,671.9766,231.2217,670.5957,230.7197z"
   id="path71" />&#10;</g>&#10;<path
   id="path72"
   fill="#FFFFFF"
   stroke="#000000"
   stroke-width="2"
   d="M286.5938,118.605l-94.2798-16.2578  c-4.9209-0.8491-8.188,4.9429-4.9209,8.7178l62.6509,72.3022c3.2002,3.6904,9.2632,1.4795,9.333-3.4004l0.3501-24.501  l44.2388,24.9668c3.9043,2.2051,8.8555,0.8213,11.0625-3.0801c2.2041-3.9063,0.8252-8.8613-3.0801-11.0654l-44.2432-24.9629  l20.7988-12.9717C292.646,125.7686,291.4048,119.4351,286.5938,118.605" />&#10;</svg>
