<?xml version="1.0" encoding="utf-8"?>
<!DOCTYPE svg PUBLIC "-//W3C//DTD SVG 1.0//EN" "http://www.w3.org/TR/2001/REC-SVG-20010904/DTD/svg10.dtd" [
	<!ENTITY ns_svg "http://www.w3.org/2000/svg">
	<!ENTITY ns_xlink "http://www.w3.org/1999/xlink">
]>
<svg  version="1.0" id="Ebene_1" xmlns="&ns_svg;" xmlns:xlink="&ns_xlink;" width="740" height="239.9541"
	 viewBox="0 0 740 239.9541" overflow="visible" enable-background="new 0 0 740 239.9541" xml:space="preserve">
<polyline fill="#003399" points="189.5088,0.0005 189.5088,20.0005 12.5088,20.0005 12.5088,0.0005 "/>
<path fill="#003399" d="M12.127,0.0073c5.519-0.2109,10.1641,4.0923,10.375,9.6123"/>
<path fill="#003399" d="M22.502,9.6196c0.2109,5.5181-4.0933,10.1641-9.6113,10.374c-5.52,0.2109-10.1641-4.0933-10.375-9.6104
	c-0.2109-5.521,4.0923-10.165,9.6113-10.376"/>
<path fill="#0099CC" d="M22.5088,34.0005c0,5.521-4.478,10-10,10c-5.5229,0-10-4.478-10-10c0-5.5229,4.4771-10,10-10
	C18.0308,24.0005,22.5088,28.4775,22.5088,34.0005"/>
<rect x="32.0088" y="24.0005" fill="#0099CC" width="93" height="20"/>
<path fill="#0099CC" d="M43.5088,34.0005c0,5.522-4.478,10-10,10s-10-4.478-10-10s4.478-10,10-10S43.5088,28.4785,43.5088,34.0005"
	/>
<path fill="#003399" d="M189.5088,0.0005c5.5215,0,10,4.4771,10,10.001"/>
<path fill="#003399" d="M199.5088,10.0015c0,5.521-4.4785,9.999-10,9.999c-5.5234,0-10-4.479-10-9.999
	c0-5.5239,4.4766-10.001,10-10.001"/>
<path fill="#0099CC" d="M178.5088,34.0005c0,5.521-4.4785,10-10,10c-5.5234,0-10-4.478-10-10c0-5.5229,4.4766-10,10-10
	C174.0303,24.0005,178.5088,28.4775,178.5088,34.0005"/>
<path fill="#0099CC" d="M157.5088,34.0005c0,5.521-4.4785,10-10,10c-5.5229,0-10-4.478-10-10c0-5.5229,4.4771-10,10-10
	C153.0303,24.0005,157.5088,28.4775,157.5088,34.0005"/>
<path fill="#0099CC" d="M136.5088,34.0005c0,5.521-4.478,10-10,10c-5.5229,0-10-4.478-10-10c0-5.5229,4.4771-10,10-10
	C132.0308,24.0005,136.5088,28.4775,136.5088,34.0005"/>
<path fill="#0099CC" d="M199.5088,34.0005c0,5.521-4.4785,10-10,10c-5.5234,0-10-4.478-10-10c0-5.5229,4.4766-10,10-10
	C195.0303,24.0005,199.5088,28.4775,199.5088,34.0005"/>
<path fill="#0099CC" d="M22.5088,58.0005c0,5.521-4.478,10-10,10c-5.5229,0-10-4.478-10-10c0-5.5229,4.4771-10,10-10
	C18.0308,48.0005,22.5088,52.4775,22.5088,58.0005"/>
<rect x="32.0088" y="48.0005" fill="#0099CC" width="93" height="20"/>
<path fill="#0099CC" d="M43.5088,58.0005c0,5.522-4.478,10-10,10s-10-4.478-10-10s4.478-10,10-10S43.5088,52.4785,43.5088,58.0005"
	/>
<path fill="#0099CC" d="M178.5088,58.0005c0,5.521-4.4785,10-10,10c-5.5234,0-10-4.478-10-10c0-5.5229,4.4766-10,10-10
	C174.0303,48.0005,178.5088,52.4775,178.5088,58.0005"/>
<path fill="#0099CC" d="M157.5088,58.0005c0,5.521-4.4785,10-10,10c-5.5229,0-10-4.478-10-10c0-5.5229,4.4771-10,10-10
	C153.0303,48.0005,157.5088,52.4775,157.5088,58.0005"/>
<path fill="#0099CC" d="M136.5088,58.0005c0,5.521-4.478,10-10,10c-5.5229,0-10-4.478-10-10c0-5.5229,4.4771-10,10-10
	C132.0308,48.0005,136.5088,52.4775,136.5088,58.0005"/>
<path fill="#0099CC" d="M199.5088,58.0005c0,5.521-4.4785,10-10,10c-5.5234,0-10-4.478-10-10c0-5.5229,4.4766-10,10-10
	C195.0303,48.0005,199.5088,52.4775,199.5088,58.0005"/>
<path fill="#0099CC" d="M22.5088,82.0005c0,5.521-4.478,10-10,10c-5.5229,0-10-4.478-10-10c0-5.5229,4.4771-10,10-10
	C18.0308,72.0005,22.5088,76.4775,22.5088,82.0005"/>
<rect x="32.0088" y="72.0005" fill="#0099CC" width="93" height="20"/>
<path fill="#0099CC" d="M43.5088,82.0005c0,5.522-4.478,10-10,10s-10-4.478-10-10s4.478-10,10-10S43.5088,76.4785,43.5088,82.0005"
	/>
<path fill="#0099CC" d="M178.5088,82.0005c0,5.521-4.4785,10-10,10c-5.5234,0-10-4.478-10-10c0-5.5229,4.4766-10,10-10
	C174.0303,72.0005,178.5088,76.4775,178.5088,82.0005"/>
<path fill="#0099CC" d="M157.5088,82.0005c0,5.521-4.4785,10-10,10c-5.5229,0-10-4.478-10-10c0-5.5229,4.4771-10,10-10
	C153.0303,72.0005,157.5088,76.4775,157.5088,82.0005"/>
<path fill="#0099CC" d="M136.5088,82.0005c0,5.521-4.478,10-10,10c-5.5229,0-10-4.478-10-10c0-5.5229,4.4771-10,10-10
	C132.0308,72.0005,136.5088,76.4775,136.5088,82.0005"/>
<path fill="#0099CC" d="M199.5088,82.0005c0,5.521-4.4785,10-10,10c-5.5234,0-10-4.478-10-10c0-5.5229,4.4766-10,10-10
	C195.0303,72.0005,199.5088,76.4775,199.5088,82.0005"/>
<path fill="#003399" d="M22.5088,106.0005c0,5.5205-4.478,10-10,10c-5.5229,0-10-4.4775-10-10s4.4771-10,10-10
	C18.0308,96.0005,22.5088,100.478,22.5088,106.0005"/>
<rect x="32.0088" y="96.0005" fill="#003399" width="93" height="20"/>
<path fill="#003399" d="M43.5088,106.0005c0,5.5225-4.478,10-10,10s-10-4.4775-10-10s4.478-10,10-10
	S43.5088,100.478,43.5088,106.0005"/>
<path fill="#003399" d="M178.5088,106.0005c0,5.5205-4.4785,10-10,10c-5.5234,0-10-4.4775-10-10s4.4766-10,10-10
	C174.0303,96.0005,178.5088,100.478,178.5088,106.0005"/>
<path fill="#003399" d="M157.5088,106.0005c0,5.5205-4.4785,10-10,10c-5.5229,0-10-4.4775-10-10s4.4771-10,10-10
	C153.0303,96.0005,157.5088,100.478,157.5088,106.0005"/>
<path fill="#003399" d="M136.5088,106.0005c0,5.5205-4.478,10-10,10c-5.5229,0-10-4.4775-10-10s4.4771-10,10-10
	C132.0308,96.0005,136.5088,100.478,136.5088,106.0005"/>
<path fill="#003399" d="M199.5088,106.0005c0,5.5205-4.4785,10-10,10c-5.5234,0-10-4.4775-10-10s4.4766-10,10-10
	C195.0303,96.0005,199.5088,100.478,199.5088,106.0005"/>
<path fill="#0099CC" d="M22.5088,130.001c0,5.5195-4.478,10-10,10c-5.5229,0-10-4.4805-10-10c0-5.5234,4.4771-10,10-10
	C18.0308,120.001,22.5088,124.4775,22.5088,130.001"/>
<rect x="32.0088" y="120.001" fill="#0099CC" width="93" height="20"/>
<path fill="#0099CC" d="M43.5088,130.001c0,5.5215-4.478,10-10,10s-10-4.4785-10-10c0-5.5234,4.478-10,10-10
	S43.5088,124.4775,43.5088,130.001"/>
<path fill="#0099CC" d="M178.5088,130.001c0,5.5195-4.4785,10-10,10c-5.5234,0-10-4.4805-10-10c0-5.5234,4.4766-10,10-10
	C174.0303,120.001,178.5088,124.4775,178.5088,130.001"/>
<path fill="#0099CC" d="M157.5088,130.001c0,5.5195-4.4785,10-10,10c-5.5229,0-10-4.4805-10-10c0-5.5234,4.4771-10,10-10
	C153.0303,120.001,157.5088,124.4775,157.5088,130.001"/>
<path fill="#0099CC" d="M136.5088,130.001c0,5.5195-4.478,10-10,10c-5.5229,0-10-4.4805-10-10c0-5.5234,4.4771-10,10-10
	C132.0308,120.001,136.5088,124.4775,136.5088,130.001"/>
<path fill="#0099CC" d="M199.5088,130.001c0,5.5195-4.4785,10-10,10c-5.5234,0-10-4.4805-10-10c0-5.5234,4.4766-10,10-10
	C195.0303,120.001,199.5088,124.4775,199.5088,130.001"/>
<path fill="#0099CC" d="M22.5088,154.001c0,5.5195-4.478,10-10,10c-5.5229,0-10-4.4805-10-10c0-5.5234,4.4771-10,10-10
	C18.0308,144.001,22.5088,148.4775,22.5088,154.001"/>
<rect x="32.0088" y="144.001" fill="#0099CC" width="93" height="20"/>
<path fill="#0099CC" d="M43.5088,154.001c0,5.5215-4.478,10-10,10s-10-4.4785-10-10c0-5.5234,4.478-10,10-10
	S43.5088,148.4775,43.5088,154.001"/>
<path fill="#0099CC" d="M178.5088,154.001c0,5.5195-4.4785,10-10,10c-5.5234,0-10-4.4805-10-10c0-5.5234,4.4766-10,10-10
	C174.0303,144.001,178.5088,148.4775,178.5088,154.001"/>
<path fill="#0099CC" d="M157.5088,154.001c0,5.5195-4.4785,10-10,10c-5.5229,0-10-4.4805-10-10c0-5.5234,4.4771-10,10-10
	C153.0303,144.001,157.5088,148.4775,157.5088,154.001"/>
<path fill="#0099CC" d="M136.5088,154.001c0,5.5195-4.478,10-10,10c-5.5229,0-10-4.4805-10-10c0-5.5234,4.4771-10,10-10
	C132.0308,144.001,136.5088,148.4775,136.5088,154.001"/>
<path fill="#0099CC" d="M199.5088,154.001c0,5.5195-4.4785,10-10,10c-5.5234,0-10-4.4805-10-10c0-5.5234,4.4766-10,10-10
	C195.0303,144.001,199.5088,148.4775,199.5088,154.001"/>
<path fill="#0099CC" d="M22.5088,178.001c0,5.5195-4.478,10-10,10c-5.5229,0-10-4.4805-10-10c0-5.5234,4.4771-10,10-10
	C18.0308,168.001,22.5088,172.4775,22.5088,178.001"/>
<rect x="32.0088" y="168.001" fill="#0099CC" width="93" height="20"/>
<path fill="#0099CC" d="M43.5088,178.001c0,5.5215-4.478,10-10,10s-10-4.4785-10-10c0-5.5234,4.478-10,10-10
	S43.5088,172.4775,43.5088,178.001"/>
<path fill="#0099CC" d="M178.5088,178.001c0,5.5195-4.4785,10-10,10c-5.5234,0-10-4.4805-10-10c0-5.5234,4.4766-10,10-10
	C174.0303,168.001,178.5088,172.4775,178.5088,178.001"/>
<path fill="#0099CC" d="M157.5088,178.001c0,5.5195-4.4785,10-10,10c-5.5229,0-10-4.4805-10-10c0-5.5234,4.4771-10,10-10
	C153.0303,168.001,157.5088,172.4775,157.5088,178.001"/>
<path fill="#0099CC" d="M136.5088,178.001c0,5.5195-4.478,10-10,10c-5.5229,0-10-4.4805-10-10c0-5.5234,4.4771-10,10-10
	C132.0308,168.001,136.5088,172.4775,136.5088,178.001"/>
<path fill="#0099CC" d="M199.5088,178.001c0,5.5195-4.4785,10-10,10c-5.5234,0-10-4.4805-10-10c0-5.5234,4.4766-10,10-10
	C195.0303,168.001,199.5088,172.4775,199.5088,178.001"/>
<rect y="199.9053" fill="#0099CC" width="740" height="40"/>
<g>
	<path fill="#FFFFFF" d="M177.4116,231.6416v-24.125h8.7813v16.375h7.3599v7.75H177.4116z"/>
	<path fill="#FFFFFF" d="M195.6895,209.3916c0-1.2383,0.4321-2.209,1.2969-2.9121c0.8643-0.7051,1.9478-1.0566,3.25-1.0566
		c1.3018,0,2.3853,0.3516,3.25,1.0566c0.8643,0.7031,1.2974,1.6738,1.2974,2.9121c0,0.7031-0.1289,1.3066-0.3848,1.8086
		c-0.2563,0.501-0.5928,0.9121-1.0088,1.2314c-0.416,0.3203-0.8965,0.5596-1.4409,0.7197s-1.1152,0.2402-1.7129,0.2402
		s-1.1689-0.0801-1.7134-0.2402s-1.0249-0.3994-1.4409-0.7197c-0.416-0.3193-0.7524-0.7305-1.0083-1.2314
		C195.8174,210.6982,195.6895,210.0947,195.6895,209.3916z M204.3457,214.6416v17h-8.25v-17H204.3457z"/>
	<path fill="#FFFFFF" d="M214.897,214.2666c1.0879,0,2.0469,0.2441,2.877,0.7324c0.832,0.4873,1.5244,1.1797,2.0791,2.0742h0.2236
		l-0.2236-2.4316h8.0049v16c0,1.6641-0.3145,3.083-0.9434,4.2568c-0.6289,1.1729-1.4668,2.1328-2.5117,2.8799
		c-1.0449,0.7461-2.2559,1.2949-3.6309,1.6484c-1.376,0.3516-2.7988,0.5273-4.2705,0.5273c-1.3438,0-2.5869-0.1172-3.7275-0.3516
		s-2.3301-0.5654-3.5664-0.9922l-0.832-0.2871l1.8242-5.7266c0.7881,0.6816,1.7314,1.1973,2.8301,1.5488
		c1.0977,0.3516,2.1367,0.5273,3.1172,0.5273c1.1299,0,2.0146-0.3516,2.6543-1.0566c0.6396-0.7031,1.0127-1.5996,1.1191-2.6875
		l0.1602-1.7285h-0.2246c-0.2129,0.4707-0.501,0.8809-0.8633,1.2324c-0.3623,0.3525-0.7676,0.6465-1.2148,0.8809
		s-0.9219,0.4102-1.4229,0.5273s-0.9971,0.1758-1.4873,0.1758c-1.1514,0-2.1797-0.2666-3.0859-0.7988
		c-0.9063-0.5332-1.6738-1.2207-2.3027-2.0635c-0.6289-0.8418-1.1035-1.7959-1.4229-2.8623s-0.4795-2.1211-0.4795-3.166
		c0-1.0664,0.1602-2.1211,0.4795-3.166s0.7939-1.9941,1.4229-2.8477c0.6289-0.8516,1.3955-1.5391,2.3008-2.0625
		C212.686,214.5283,213.7251,214.2666,214.897,214.2666z M218.064,225.5479c0.7021,0,1.2236-0.2334,1.5635-0.7012
		c0.3418-0.4668,0.5117-1.0195,0.5117-1.6572s-0.1865-1.2061-0.5586-1.7051c-0.373-0.499-0.9004-0.749-1.5801-0.749
		c-0.6602,0-1.2031,0.2344-1.6289,0.7012c-0.4258,0.4678-0.6387,1.041-0.6387,1.7207s0.207,1.248,0.623,1.7051
		C216.77,225.3193,217.3403,225.5479,218.064,225.5479z"/>
	<path fill="#FFFFFF" d="M230.6489,223.2217c0-1.0664,0.1602-2.1318,0.4795-3.1982c0.3193-1.0654,0.7939-2.0254,1.4229-2.8779
		c0.6289-0.8535,1.4004-1.5459,2.3174-2.0791c0.916-0.5332,1.9717-0.7998,3.165-0.7998c1.0225,0,1.9492,0.1914,2.7813,0.5723
		c0.8301,0.3809,1.5547,0.9863,2.1738,1.8184h0.1914l-0.2559-2.0156h8.0996v17h-8.0996l0.2559-2.251h-0.1846
		c-0.7471,0.79-1.5029,1.4248-2.2705,1.9053s-1.7383,0.7207-2.9111,0.7207c-1.1514,0-2.1748-0.2666-3.0713-0.7988
		c-0.8945-0.5332-1.6465-1.2207-2.2539-2.0635c-0.6084-0.8418-1.0664-1.7852-1.376-2.8301S230.6489,224.2451,230.6489,223.2217z
		 M238.8364,223.0615c0,0.6807,0.1699,1.2656,0.5107,1.7539s0.8838,0.7324,1.6299,0.7324c0.7871,0,1.3516-0.2598,1.6914-0.7813
		c0.3418-0.5195,0.5117-1.1094,0.5117-1.7686c0-0.6582-0.2031-1.2002-0.6074-1.625s-0.9365-0.6377-1.5957-0.6377
		c-0.6602,0-1.1826,0.2344-1.5664,0.7012C239.0278,221.9043,238.8364,222.4463,238.8364,223.0615z"/>
	<path fill="#FFFFFF" d="M270.8657,207.5166h9.0234l3.3281,12.6719h0.2246c0.084-0.5332,0.1699-1.0723,0.2559-1.6152
		c0.084-0.5449,0.2021-1.0723,0.3516-1.584l2.7197-9.4727h8.9287l3.9668,24.125h-8.4795l-1.1514-13.2188h-0.1924
		c-0.043,0.4053-0.1182,0.8105-0.2236,1.2168c-0.1074,0.4043-0.2246,0.7998-0.3525,1.1836l-3.4873,10.8184h-5.1211l-3.1357-10.21
		c-0.1494-0.4912-0.2666-0.9873-0.3525-1.4883c-0.085-0.501-0.1484-1.0088-0.1914-1.5205h-0.2871
		c-0.043,0.4912-0.0811,0.9766-0.1133,1.457c-0.0313,0.4795-0.0684,0.9648-0.1113,1.4551l-1.0234,10.3066h-8.4805L270.8657,207.5166
		z"/>
	<path fill="#FFFFFF" d="M301.6567,223.2217c0-1.0664,0.1602-2.1318,0.4795-3.1982c0.3193-1.0654,0.7939-2.0254,1.4229-2.8779
		c0.6289-0.8535,1.4004-1.5459,2.3174-2.0791c0.916-0.5332,1.9717-0.7998,3.165-0.7998c1.0225,0,1.9492,0.1914,2.7813,0.5723
		c0.8301,0.3809,1.5547,0.9863,2.1738,1.8184h0.1914l-0.2559-2.0156h8.0996v17h-8.0996l0.2559-2.251h-0.1846
		c-0.7471,0.79-1.5029,1.4248-2.2705,1.9053s-1.7383,0.7207-2.9111,0.7207c-1.1514,0-2.1748-0.2666-3.0713-0.7988
		c-0.8945-0.5332-1.6465-1.2207-2.2539-2.0635c-0.6084-0.8418-1.0664-1.7852-1.376-2.8301S301.6567,224.2451,301.6567,223.2217z
		 M309.8442,223.0615c0,0.6807,0.1699,1.2656,0.5107,1.7539s0.8838,0.7324,1.6299,0.7324c0.7871,0,1.3516-0.2598,1.6914-0.7813
		c0.3418-0.5195,0.5117-1.1094,0.5117-1.7686c0-0.6582-0.2031-1.2002-0.6074-1.625s-0.9365-0.6377-1.5957-0.6377
		c-0.6602,0-1.1826,0.2344-1.5664,0.7012C310.0356,221.9043,309.8442,222.4463,309.8442,223.0615z"/>
	<path fill="#FFFFFF" d="M325.2583,214.6416h8.0625l-0.3164,2.7285h0.1914c0.4063-0.4688,0.7949-0.8955,1.1699-1.2793
		c0.373-0.3838,0.7686-0.709,1.1855-0.9766c0.416-0.2656,0.875-0.4746,1.377-0.623c0.502-0.1504,1.084-0.2246,1.7461-0.2246
		c1.0684,0,1.9707,0.1875,2.709,0.5605c0.7363,0.373,1.3457,0.875,1.8262,1.5039s0.8271,1.3594,1.041,2.1914
		c0.2129,0.832,0.3203,1.7168,0.3203,2.6563v10.4629h-8.25v-8.2871c0-0.2559-0.0059-0.5234-0.0156-0.8008
		c-0.0117-0.2773-0.0654-0.5332-0.1621-0.7676c-0.0977-0.2344-0.2373-0.4316-0.4199-0.5918
		c-0.1836-0.1602-0.459-0.2402-0.8242-0.2402c-0.3457,0-0.6094,0.0693-0.793,0.208s-0.3184,0.3203-0.4043,0.5439
		c-0.0859,0.2246-0.1396,0.4688-0.1611,0.7363c-0.0215,0.2656-0.0322,0.5273-0.0322,0.7832v8.416h-8.25V214.6416z"/>
	<path fill="#FFFFFF" d="M347.1919,223.2217c0-1.0664,0.1602-2.1318,0.4795-3.1982c0.3193-1.0654,0.7939-2.0254,1.4229-2.8779
		c0.6289-0.8535,1.4004-1.5459,2.3174-2.0791c0.916-0.5332,1.9717-0.7998,3.165-0.7998c1.0225,0,1.9492,0.1914,2.7813,0.5723
		c0.8301,0.3809,1.5547,0.9863,2.1738,1.8184h0.1914l-0.2559-2.0156h8.0996v17h-8.0996l0.2559-2.251h-0.1846
		c-0.7471,0.79-1.5029,1.4248-2.2705,1.9053s-1.7383,0.7207-2.9111,0.7207c-1.1514,0-2.1748-0.2666-3.0713-0.7988
		c-0.8945-0.5332-1.6465-1.2207-2.2539-2.0635c-0.6084-0.8418-1.0664-1.7852-1.376-2.8301S347.1919,224.2451,347.1919,223.2217z
		 M355.3794,223.0615c0,0.6807,0.1699,1.2656,0.5107,1.7539s0.8838,0.7324,1.6299,0.7324c0.7871,0,1.3516-0.2598,1.6914-0.7813
		c0.3418-0.5195,0.5117-1.1094,0.5117-1.7686c0-0.6582-0.2031-1.2002-0.6074-1.625s-0.9365-0.6377-1.5957-0.6377
		c-0.6602,0-1.1826,0.2344-1.5664,0.7012C355.5708,221.9043,355.3794,222.4463,355.3794,223.0615z"/>
	<path fill="#FFFFFF" d="M377.582,214.2666c1.0879,0,2.0469,0.2441,2.877,0.7324c0.832,0.4873,1.5254,1.1797,2.0801,2.0742h0.2227
		l-0.2227-2.4316h8.0039v16c0,1.6641-0.3145,3.083-0.9434,4.2568c-0.6289,1.1729-1.4668,2.1328-2.5117,2.8799
		c-1.0449,0.7461-2.2559,1.2949-3.6309,1.6484c-1.375,0.3516-2.7988,0.5273-4.2695,0.5273c-1.3438,0-2.5879-0.1172-3.7285-0.3516
		s-2.3301-0.5654-3.5664-0.9922l-0.832-0.2871l1.8242-5.7266c0.7891,0.6816,1.7324,1.1973,2.8301,1.5488
		s2.1367,0.5273,3.1172,0.5273c1.1309,0,2.0156-0.3516,2.6543-1.0566c0.6406-0.7031,1.0137-1.5996,1.1191-2.6875l0.1602-1.7285
		h-0.2246c-0.2129,0.4707-0.5,0.8809-0.8633,1.2324c-0.3613,0.3525-0.7676,0.6465-1.2148,0.8809s-0.9219,0.4102-1.4219,0.5273
		c-0.502,0.1172-0.998,0.1758-1.4883,0.1758c-1.1504,0-2.1797-0.2666-3.0859-0.7988c-0.9063-0.5332-1.6738-1.2207-2.3027-2.0635
		c-0.6289-0.8418-1.1035-1.7959-1.4224-2.8623c-0.3193-1.0664-0.4795-2.1211-0.4795-3.166c0-1.0664,0.1602-2.1211,0.4795-3.166
		c0.3188-1.0449,0.7935-1.9941,1.4224-2.8477c0.6289-0.8516,1.3965-1.5391,2.3008-2.0625
		C375.3711,214.5283,376.4102,214.2666,377.582,214.2666z M380.75,225.5479c0.7012,0,1.2227-0.2334,1.5625-0.7012
		c0.3418-0.4668,0.5117-1.0195,0.5117-1.6572s-0.1855-1.2061-0.5586-1.7051s-0.9004-0.749-1.5801-0.749
		c-0.6602,0-1.2031,0.2344-1.6289,0.7012c-0.4258,0.4678-0.6387,1.041-0.6387,1.7207s0.207,1.248,0.623,1.7051
		C379.4551,225.3193,380.0254,225.5479,380.75,225.5479z"/>
	<path fill="#FFFFFF" d="M393.3965,223.4131c0-1.4063,0.2559-2.6758,0.7676-3.8047c0.5117-1.1309,1.2051-2.0898,2.0801-2.8789
		s1.9082-1.3965,3.1035-1.8232c1.1934-0.4268,2.4629-0.6396,3.8066-0.6396c1.4512,0,2.8105,0.2139,4.0801,0.6406
		c1.2676,0.4277,2.3711,1.0518,3.3105,1.874c0.9375,0.8223,1.6797,1.8203,2.2227,2.9951c0.5449,1.1738,0.8164,2.5078,0.8164,4.0029
		c0,0.1279,0,0.2568,0,0.3838c0,0.1289-0.0098,0.2568-0.0313,0.3848h-12c0,0.3408,0.0215,0.6875,0.0645,1.0381
		c0.043,0.3516,0.1328,0.665,0.2715,0.9424c0.1387,0.2764,0.3359,0.5,0.5918,0.6699c0.2559,0.1709,0.5977,0.2559,1.0254,0.2559
		c0.4258,0,0.7871-0.1328,1.0859-0.3994s0.4922-0.6016,0.5762-1.0068h8.0332c-0.2773,1.0215-0.748,1.9043-1.4082,2.6494
		c-0.6621,0.7451-1.4355,1.3672-2.3203,1.8672s-1.834,0.8672-2.8477,1.1006c-1.0117,0.2344-2.0098,0.3516-2.9902,0.3516
		c-1.3438,0-2.6289-0.1758-3.8555-0.5273s-2.3145-0.8789-3.2637-1.583s-1.7051-1.5938-2.2715-2.6709
		C393.6797,226.1592,393.3965,224.8848,393.3965,223.4131z M401.5527,221.0166h3.875c0-0.5781-0.1875-1.0938-0.5605-1.543
		c-0.373-0.4512-0.8594-0.6758-1.457-0.6758c-0.6191,0-1.084,0.2197-1.3926,0.6592
		C401.707,219.8965,401.5527,220.417,401.5527,221.0166z"/>
	<path fill="#FFFFFF" d="M416.2012,214.6416h8.25l-0.1914,2.2813h0.1914c0.3418-0.5117,0.6875-0.9385,1.0391-1.2793
		c0.3535-0.3418,0.7363-0.6133,1.1523-0.8164s0.8691-0.3477,1.3613-0.4326c0.4902-0.085,1.0332-0.1279,1.6309-0.1279h0.5762v8.3828
		c-0.4258-0.252-0.8223-0.4668-1.1836-0.6465c-0.3633-0.1777-0.8105-0.2676-1.3438-0.2676c-1.0664,0-1.873,0.293-2.416,0.8789
		c-0.5449,0.5859-0.8164,1.4219-0.8164,2.5078v6.5195h-8.25V214.6416z"/>
	<path fill="#FFFFFF" d="M444.916,219.6436c0-1.8975,0.3516-3.6133,1.0547-5.1484c0.7051-1.5342,1.6582-2.8457,2.8652-3.9316
		c1.2051-1.0879,2.6172-1.9297,4.2383-2.5264s3.3496-0.8955,5.1855-0.8955c1.834,0,3.5625,0.2988,5.1836,0.8955
		s3.0332,1.4385,4.2402,2.5264c1.2051,1.0859,2.1582,2.3975,2.8633,3.9316c0.7031,1.5352,1.0566,3.251,1.0566,5.1484
		c0,1.9395-0.3535,3.6719-1.0566,5.1953c-0.7051,1.5234-1.6582,2.8184-2.8633,3.8848c-1.207,1.0664-2.6191,1.8809-4.2402,2.4453
		s-3.3496,0.8477-5.1836,0.8477c-1.8359,0-3.5645-0.2832-5.1855-0.8477s-3.0332-1.3789-4.2383-2.4453
		c-1.207-1.0664-2.1602-2.3613-2.8652-3.8848C445.2676,223.3154,444.916,221.583,444.916,219.6436z M453.7598,219.7666
		c0,0.7031,0.1055,1.335,0.3184,1.8984s0.5215,1.0469,0.9258,1.4512s0.8828,0.7168,1.4355,0.9404s1.1602,0.335,1.8203,0.335
		c0.6797,0,1.291-0.1113,1.834-0.335s1.0156-0.5361,1.4199-0.9404s0.7129-0.8877,0.9258-1.4512s0.3203-1.1953,0.3203-1.8984
		c0-0.6367-0.1074-1.2383-0.3203-1.8008c-0.2129-0.5645-0.5098-1.0635-0.8926-1.5c-0.3828-0.4355-0.8516-0.7754-1.4043-1.0195
		c-0.5547-0.2441-1.1816-0.3672-1.8828-0.3672c-0.7031,0-1.3301,0.123-1.8848,0.3672c-0.5527,0.2441-1.0215,0.584-1.4043,1.0195
		c-0.3828,0.4365-0.6797,0.9355-0.8926,1.5C453.8652,218.5283,453.7598,219.1299,453.7598,219.7666z"/>
	<path fill="#FFFFFF" d="M474.3125,214.6416h8.0625l-0.3184,2.7285h0.1934c0.4043-0.4688,0.7949-0.8955,1.168-1.2793
		c0.375-0.3838,0.7695-0.709,1.1855-0.9766c0.418-0.2656,0.877-0.4746,1.3789-0.623c0.502-0.1504,1.084-0.2246,1.7461-0.2246
		c1.0684,0,1.9707,0.1875,2.707,0.5605c0.7383,0.373,1.3457,0.875,1.8262,1.5039s0.8281,1.3594,1.043,2.1914
		c0.2129,0.832,0.3203,1.7168,0.3203,2.6563v10.4629h-8.25v-8.2871c0-0.2559-0.0059-0.5234-0.0176-0.8008
		c-0.0098-0.2773-0.0645-0.5332-0.1602-0.7676c-0.0977-0.2344-0.2383-0.4316-0.4219-0.5918s-0.457-0.2402-0.8242-0.2402
		c-0.3438,0-0.6074,0.0693-0.791,0.208s-0.3184,0.3203-0.4043,0.5439c-0.0859,0.2246-0.1406,0.4688-0.1621,0.7363
		c-0.0215,0.2656-0.0313,0.5273-0.0313,0.7832v8.416h-8.25V214.6416z"/>
	<path fill="#FFFFFF" d="M497.0254,231.6416v-25.9375h8.25v25.9375H497.0254z"/>
	<path fill="#FFFFFF" d="M508.9004,209.3916c0-1.2383,0.4316-2.209,1.2969-2.9121c0.8633-0.7051,1.9473-1.0566,3.25-1.0566
		c1.3008,0,2.3848,0.3516,3.25,1.0566c0.8633,0.7031,1.2969,1.6738,1.2969,2.9121c0,0.7031-0.1289,1.3066-0.3848,1.8086
		c-0.2559,0.501-0.5938,0.9121-1.0098,1.2314c-0.416,0.3203-0.8965,0.5596-1.4395,0.7197
		c-0.5449,0.1602-1.1152,0.2402-1.7129,0.2402s-1.1699-0.0801-1.7148-0.2402c-0.543-0.1602-1.0234-0.3994-1.4395-0.7197
		c-0.416-0.3193-0.7539-0.7305-1.0098-1.2314C509.0273,210.6982,508.9004,210.0947,508.9004,209.3916z M517.5566,214.6416v17h-8.25
		v-17H517.5566z"/>
	<path fill="#FFFFFF" d="M521.3184,214.6416h8.0625l-0.3164,2.7285h0.1914c0.4063-0.4688,0.7949-0.8955,1.1699-1.2793
		c0.373-0.3838,0.7695-0.709,1.1855-0.9766c0.416-0.2656,0.875-0.4746,1.377-0.623c0.502-0.1504,1.084-0.2246,1.7461-0.2246
		c1.0684,0,1.9707,0.1875,2.709,0.5605c0.7363,0.373,1.3457,0.875,1.8262,1.5039s0.8281,1.3594,1.041,2.1914
		s0.3203,1.7168,0.3203,2.6563v10.4629h-8.25v-8.2871c0-0.2559-0.0059-0.5234-0.0156-0.8008
		c-0.0117-0.2773-0.0645-0.5332-0.1621-0.7676s-0.2363-0.4316-0.4199-0.5918s-0.459-0.2402-0.8242-0.2402
		c-0.3457,0-0.6094,0.0693-0.793,0.208s-0.3184,0.3203-0.4043,0.5439c-0.0859,0.2246-0.1387,0.4688-0.1602,0.7363
		c-0.0215,0.2656-0.0332,0.5273-0.0332,0.7832v8.416h-8.25V214.6416z"/>
	<path fill="#FFFFFF" d="M543.3145,223.4131c0-1.4063,0.2559-2.6758,0.7676-3.8047c0.5117-1.1309,1.2051-2.0898,2.0801-2.8789
		s1.9082-1.3965,3.1035-1.8232c1.1934-0.4268,2.4629-0.6396,3.8066-0.6396c1.4512,0,2.8105,0.2139,4.0801,0.6406
		c1.2676,0.4277,2.3711,1.0518,3.3105,1.874c0.9375,0.8223,1.6797,1.8203,2.2227,2.9951c0.5449,1.1738,0.8164,2.5078,0.8164,4.0029
		c0,0.1279,0,0.2568,0,0.3838c0,0.1289-0.0098,0.2568-0.0313,0.3848h-12c0,0.3408,0.0215,0.6875,0.0645,1.0381
		c0.043,0.3516,0.1328,0.665,0.2715,0.9424c0.1387,0.2764,0.3359,0.5,0.5918,0.6699c0.2559,0.1709,0.5977,0.2559,1.0254,0.2559
		c0.4258,0,0.7871-0.1328,1.0859-0.3994s0.4922-0.6016,0.5762-1.0068h8.0332c-0.2773,1.0215-0.748,1.9043-1.4082,2.6494
		c-0.6621,0.7451-1.4355,1.3672-2.3203,1.8672s-1.834,0.8672-2.8477,1.1006c-1.0117,0.2344-2.0098,0.3516-2.9902,0.3516
		c-1.3438,0-2.6289-0.1758-3.8555-0.5273s-2.3145-0.8789-3.2637-1.583s-1.7051-1.5938-2.2715-2.6709
		C543.5977,226.1592,543.3145,224.8848,543.3145,223.4131z M551.4707,221.0166h3.875c0-0.5781-0.1875-1.0938-0.5605-1.543
		c-0.373-0.4512-0.8594-0.6758-1.457-0.6758c-0.6191,0-1.084,0.2197-1.3926,0.6592
		C551.625,219.8965,551.4707,220.417,551.4707,221.0166z"/>
</g>
<g>
	<path fill="#0099CC" stroke="#000000" d="M385.2324,140.1104l21.7461-62.5625h25.1504l22.3262,62.5625h-24.0703l-2.0742-7.8125
		h-17.1816l-1.8262,7.8125H385.2324z M424.3262,117.4229c-2.0469-8.5645-3.209-13.5371-3.4863-14.9189l-0.6641-4.1436h-0.8301
		l-4.1504,19.0625H424.3262z"/>
	<path fill="#0099CC" stroke="#000000" d="M456.8516,118.4521c0-2.7656,0.373-5.5322,1.1211-8.2988
		c0.7461-2.7666,1.8809-5.2705,3.4023-7.5117c1.5215-2.2402,3.4316-4.0664,5.7285-5.4775c2.2969-1.4102,4.9941-2.1162,8.0938-2.1162
		c2.4902,0,4.9531,0.6367,7.3887,1.9092c2.4355,1.2734,4.4004,2.9336,5.8945,4.9805h0.7461
		c-0.1113-1.0508-0.2227-2.1299-0.334-3.2373c-0.1113-1.1064-0.2207-2.1436-0.332-3.1123s-0.1953-1.8125-0.25-2.5322
		c-0.0566-0.7197-0.084-1.2178-0.084-1.4951V72.7979h21.4375v67.3125h-20.1074l0.416-6.5459h-0.5
		c-1.8262,2.3223-3.957,4.1602-6.3906,5.5146c-2.4355,1.3535-5.0918,2.0313-7.9688,2.0313c-2.9883,0-5.6172-0.6924-7.8848-2.0742
		c-2.2695-1.3828-4.1797-3.1533-5.7285-5.3115s-2.7109-4.5791-3.4863-7.2627S456.8516,121.1084,456.8516,118.4521z
		 M477.9141,118.0371c0,1.6641,0.4707,3.1348,1.4141,4.4102s2.3008,1.9131,4.0762,1.9131c0.832,0,1.5938-0.1934,2.2871-0.582
		s1.2754-0.9014,1.7461-1.5391s0.8457-1.3447,1.123-2.1211s0.416-1.5254,0.416-2.2471c0-1.5527-0.5273-2.9531-1.5801-4.2012
		c-1.0547-1.248-2.3848-1.8721-3.9922-1.8721c-1.7754,0-3.1328,0.6387-4.0762,1.9141S477.9141,116.4297,477.9141,118.0371z"/>
	<path fill="#0099CC" stroke="#000000" d="M516.6113,118.4521c0-2.7656,0.373-5.5322,1.1201-8.2988s1.8818-5.2705,3.4033-7.5117
		c1.5215-2.2402,3.4316-4.0664,5.7285-5.4775c2.2969-1.4102,4.9941-2.1162,8.0938-2.1162c2.4902,0,4.9521,0.6367,7.3877,1.9092
		c2.4355,1.2734,4.4004,2.9336,5.8945,4.9805h0.7471c-0.1113-1.0508-0.2227-2.1299-0.334-3.2373
		c-0.1113-1.1064-0.2217-2.1436-0.333-3.1123s-0.1943-1.8125-0.25-2.5322s-0.083-1.2178-0.083-1.4951V72.7979h21.4375v67.3125
		h-20.1084l0.416-6.5459h-0.499c-1.8262,2.3223-3.957,4.1602-6.3916,5.5146c-2.4355,1.3535-5.0918,2.0313-7.9688,2.0313
		c-2.9883,0-5.6162-0.6924-7.8848-2.0742c-2.2695-1.3828-4.1787-3.1533-5.7275-5.3115c-1.5498-2.1582-2.7119-4.5791-3.4863-7.2627
		C516.998,123.7783,516.6113,121.1084,516.6113,118.4521z M537.6738,118.0371c0,1.6641,0.4707,3.1348,1.4141,4.4102
		c0.9424,1.2754,2.3008,1.9131,4.0752,1.9131c0.832,0,1.5938-0.1934,2.2871-0.582s1.2754-0.9014,1.7471-1.5391
		c0.4707-0.6377,0.8457-1.3447,1.123-2.1211s0.416-1.5254,0.416-2.2471c0-1.5527-0.5273-2.9531-1.5811-4.2012
		s-2.3848-1.8721-3.9922-1.8721c-1.7744,0-3.1328,0.6387-4.0752,1.9141C538.1445,114.9873,537.6738,116.4297,537.6738,118.0371z"/>
	<path fill="#0099CC" stroke="#000000" d="M576.4326,118.6182c0-3.873,0.7197-7.2754,2.1602-10.208
		c1.4395-2.9316,3.3779-5.3936,5.8154-7.3857c2.4365-1.9922,5.2744-3.4863,8.5146-4.4824s6.6602-1.4941,10.2598-1.4941
		s7.0186,0.498,10.2588,1.4941s6.0781,2.4902,8.5156,4.4824c2.4365,1.9922,4.375,4.4541,5.8154,7.3857
		c1.4395,2.9326,2.1602,6.335,2.1602,10.208c0,3.6523-0.748,6.876-2.2432,9.6699c-1.4961,2.7939-3.4893,5.1455-5.9814,7.0537
		c-2.4922,1.9092-5.3447,3.3477-8.5566,4.3164c-3.2129,0.9678-6.5352,1.4521-9.9688,1.4521s-6.7568-0.4844-9.9688-1.4521
		c-3.2129-0.9688-6.0645-2.4072-8.5566-4.3164c-2.4922-1.9082-4.4863-4.2598-5.9814-7.0537
		C577.1797,125.4941,576.4326,122.2705,576.4326,118.6182z M597.1826,118.2871c0,1.7754,0.583,3.2314,1.75,4.3682
		c1.166,1.1367,2.583,1.7051,4.25,1.7051c1.666,0,3.083-0.5684,4.25-1.7051c1.166-1.1367,1.75-2.5928,1.75-4.3682
		c0-1.7744-0.5557-3.2998-1.667-4.5752s-2.5557-1.9141-4.333-1.9141c-1.7783,0-3.2227,0.6387-4.334,1.9141
		S597.1826,116.5127,597.1826,118.2871z"/>
	<path fill="#0099CC" stroke="#000000" d="M637.0059,96.0479h20.9375l-0.873,7.0645h0.498
		c1.0498-1.2188,2.0586-2.3271,3.0264-3.3252c0.9668-0.998,1.9902-1.8428,3.0684-2.5361c1.0781-0.6924,2.2666-1.2324,3.5654-1.6211
		c1.2988-0.3877,2.8057-0.582,4.5195-0.582c2.7637,0,5.0996,0.4844,7.0068,1.4521c1.9072,0.9688,3.4824,2.2686,4.7266,3.9004
		c1.2441,1.6328,2.1426,3.5273,2.6953,5.6855s0.8291,4.4541,0.8291,6.8877v27.1367h-21.4375v-21.4707
		c0-0.6621-0.0137-1.3525-0.041-2.0713s-0.1641-1.3818-0.4102-1.9902c-0.2461-0.6074-0.6006-1.1191-1.0645-1.5332
		s-1.1602-0.6221-2.0879-0.6221c-0.874,0-1.543,0.1797-2.0068,0.5391s-0.8047,0.8291-1.0234,1.4092s-0.3545,1.2158-0.4092,1.9063
		c-0.0547,0.6914-0.082,1.3682-0.082,2.0313v21.8018h-21.4375V96.0479z"/>
	<path fill="#0099CC" stroke="#000000" d="M691.875,136.2246l5.4785-13.2607l1.3281,0.8301
		c1.4941,0.9404,3.2363,1.8535,5.2285,2.7383c1.9922,0.8857,3.9004,1.3281,5.7266,1.3281c0.7188,0,1.4258-0.1934,2.1172-0.5811
		s1.0371-0.9971,1.0371-1.8281c0-0.6094-0.1387-1.0801-0.4141-1.4121s-0.6348-0.5811-1.0762-0.7471
		c-0.4434-0.166-0.9121-0.291-1.4102-0.374c-0.4961-0.083-0.9668-0.1523-1.4082-0.208c-1.7676-0.2764-3.4805-0.6777-5.1367-1.2041
		c-1.6582-0.5254-3.1211-1.2598-4.3906-2.2012c-1.2715-0.9414-2.293-2.1328-3.0664-3.5723s-1.1602-3.1846-1.1602-5.2334
		c0-2.7686,0.623-5.1221,1.8672-7.0605s2.8633-3.5313,4.8555-4.7773c1.9902-1.2461,4.2031-2.1592,6.6367-2.7412
		c2.4336-0.5811,4.8418-0.8721,7.2207-0.8721c2.8203,0,5.7539,0.292,8.7969,0.874s5.8105,1.5391,8.3008,2.8701l-5.2285,12.2207
		c-1.3848-0.9961-2.9336-1.8535-4.6484-2.5732c-1.7168-0.7188-3.459-1.0791-5.2305-1.0791c-0.6641,0-1.3418,0.1387-2.0332,0.415
		s-1.0371,0.8018-1.0371,1.5752c0,1.1055,0.5098,1.7832,1.5313,2.0313c1.0215,0.249,2.2773,0.5117,3.7676,0.7881
		c1.877,0.332,3.6563,0.7598,5.3398,1.2852s3.1465,1.2588,4.3887,2.1982s2.2344,2.1563,2.9805,3.6484
		c0.7441,1.4922,1.1172,3.3721,1.1172,5.6387c0,2.875-0.6484,5.335-1.9473,7.3799c-1.2988,2.0459-2.9727,3.7188-5.0176,5.0176
		s-4.3379,2.2529-6.8809,2.8604s-5.0313,0.9121-7.4629,0.9121c-3.4863,0-6.918-0.4697-10.293-1.4072
		C698.377,138.7646,695.084,137.6055,691.875,136.2246z"/>
</g>
</svg>
